<?xml version="1.0"?>
<svg xmlns="http://www.w3.org/2000/svg" width="112" height="56" viewBox="0 0 112 56" fill="none">
<path d="M49.5327 32.1927L48.4766 35.4495C48.4627 35.5023 48.4311 35.5488 48.3871 35.581C48.343 35.6133 48.2892 35.6294 48.2347 35.6266H45.6711C45.5178 35.6266 45.4724 35.538 45.4962 35.4106L49.8998 22.7008C50.0465 22.2682 50.1195 21.8142 50.1158 21.3574C50.1139 21.3199 50.1266 21.283 50.1511 21.2545C50.1756 21.226 50.2101 21.2079 50.2475 21.2041H53.77C53.8801 21.2041 53.9233 21.2257 53.9471 21.3358L58.9446 35.4279C58.9878 35.538 58.9662 35.6266 58.8345 35.6266H55.9772C55.9248 35.6356 55.8709 35.6249 55.8259 35.5966C55.7808 35.5683 55.7478 35.5244 55.7332 35.4732L54.6101 32.1927H49.5327ZM53.8045 29.439C53.3726 27.9856 52.4828 25.3227 52.066 23.759H52.0444C51.6902 25.2341 50.8976 27.6465 50.3166 29.439H53.8045Z" fill="#687580"/>
<path d="M59.2969 30.2535C59.2969 27.1047 61.6531 24.4634 65.6831 24.4634C65.858 24.4634 66.0783 24.485 66.4088 24.5066V20.1699C66.4063 20.1492 66.4086 20.1282 66.4155 20.1085C66.4223 20.0888 66.4336 20.0709 66.4483 20.0561C66.4631 20.0414 66.481 20.0301 66.5007 20.0233C66.5204 20.0164 66.5414 20.0141 66.5621 20.0166H69.3373C69.4475 20.0166 69.4691 20.0598 69.4691 20.1483V33.1605C69.4633 33.6975 69.4929 34.2342 69.5576 34.7673C69.5576 34.8775 69.536 34.9228 69.4043 34.966C68.0322 35.5492 66.5563 35.8489 65.0654 35.8472C61.8064 35.8472 59.2969 33.9985 59.2969 30.2535ZM66.4088 27.1285C66.1463 27.0426 65.8704 27.0053 65.5946 27.0183C63.8992 27.0183 62.4457 28.0528 62.4457 30.1002C62.4457 32.2793 63.7005 33.2275 65.3743 33.2275C65.7241 33.2422 66.0738 33.1976 66.4088 33.0957V27.1285Z" fill="#687580"/>
<path d="M82.0793 30.1001C82.0793 33.5556 79.8332 35.847 76.6627 35.847C72.8962 35.847 71.2246 33.007 71.2246 30.167C71.2246 27.0398 73.3152 24.4633 76.7059 24.4633C80.2522 24.4633 82.0793 27.1283 82.0793 30.1001ZM74.3281 30.1217C74.3281 32.0654 75.2309 33.2921 76.7038 33.2921C77.9823 33.2921 78.9499 32.1928 78.9499 30.167C78.9499 28.4393 78.2458 27.0182 76.5742 27.0182C75.2978 27.0182 74.3281 28.1628 74.3281 30.1217Z" fill="#687580"/>
<path d="M86.7074 20.0166C86.8823 20.0166 86.9234 20.0382 86.9234 20.1915V24.7053C87.5263 24.5439 88.1479 24.4626 88.7721 24.4634C92.0116 24.4634 94.0569 26.7527 94.0569 29.7029C94.0569 33.8214 90.7979 35.8472 87.4525 35.8472C86.2815 35.8554 85.1162 35.6843 83.997 35.3397C83.9581 35.3183 83.9255 35.2871 83.9024 35.2492C83.8793 35.2113 83.8665 35.1681 83.8652 35.1237V20.1699C83.8652 20.0598 83.9084 20.0166 84.0186 20.0166H86.7074ZM88.2192 27.0615C87.7809 27.0561 87.3442 27.1158 86.9234 27.2386V33.2167C87.1904 33.2774 87.4637 33.3064 87.7376 33.3031C89.4113 33.3031 90.9296 32.2902 90.9296 30.0009C90.9339 27.9859 89.7677 27.0615 88.2257 27.0615H88.2192Z" fill="#687580"/>
<path d="M98.3653 30.9595C98.4755 32.2143 99.3566 33.2488 101.514 33.2488C102.442 33.2667 103.364 33.094 104.222 32.7413C104.289 32.6981 104.354 32.7197 104.354 32.8514V34.9442C104.354 35.0975 104.311 35.1602 104.201 35.2077C103.32 35.6267 102.352 35.8556 100.832 35.8556C96.6915 35.8556 95.2402 33.0156 95.2402 30.2857C95.2402 27.247 97.1105 24.4718 100.568 24.4718C103.892 24.4718 105.214 27.0483 105.214 29.2231C105.229 29.7173 105.192 30.2118 105.104 30.6982C105.101 30.7442 105.081 30.7875 105.048 30.8201C105.016 30.8526 104.972 30.8723 104.926 30.8753C104.173 30.9465 103.416 30.9761 102.659 30.9639L98.3653 30.9595ZM101.229 28.8236C101.596 28.837 101.964 28.8219 102.328 28.7782V28.6249C102.322 28.3871 102.268 28.153 102.17 27.9362C102.073 27.7194 101.933 27.5242 101.758 27.3622C101.584 27.2001 101.38 27.0744 101.156 26.9923C100.933 26.9102 100.696 26.8735 100.458 26.8842C99.0715 26.8842 98.4755 27.9208 98.3437 28.8279L101.229 28.8236Z" fill="#687580"/>
<path d="M25.3867 15.1851H36.0405V40.6933L25.3867 15.1851Z" fill="#687580"/>
<path d="M17.8792 15.1851H7.2168V40.6933L17.8792 15.1851Z" fill="#687580"/>
<path d="M21.6331 24.5862L28.421 40.6932H23.972L21.9419 35.5639H16.9746L21.6331 24.5862Z" fill="#687580"/>
</svg>
