<?xml version="1.0" encoding="utf-8"?>
<svg xmlns="http://www.w3.org/2000/svg" id="Capa_1" x="0px" y="0px" viewBox="-68.783 -83.11 1481.803 592.866" style="enable-background:new 0 0 1366.6 413.4;">
  <style type="text/css">
	.st0{fill-rule:evenodd;clip-rule:evenodd;fill:#004481;}
	.st1{fill:#004481;}
</style>
  <path class="st0" d="M869.6,402c-2.4,4.3-2.8,6.1-7.9,8.1c-2.1,0.4-4.1,0.4-6.2,0c-5.3-1.9-5.9-5-8-9L670,67.7 c-1.5-2.6-3-5.2-3.3-8.3c0,0-1.6-8.6,7.2-8.6c19,0,34.9,0.5,52.3,0.5c5.7-0.1,9.2,1.6,11.8,6.1l113.5,218.8c2.3,3.2,2.8,3.9,4.4,5.7 c4,1.6,7,0.4,9.3-4.1L976.3,66.1c0,0,6.8-15,13.5-15c17.9,0.1,35.1,1,53,1c7.9,0,7.9,6.2,7.5,7.8c-5.4,9.5-7.7,14.4-9.8,19.2 L869.6,402z"/>
  <path class="st0" d="M1163.6,8.4c2.4-4.3,2.8-6.1,7.9-8.1c2.1-0.4,4.1-0.4,6.2,0c5.3,1.9,5.9,5,8,9l177.4,333.5 c1.5,2.6,3,5.2,3.3,8.3c0,0,1.6,8.6-7.2,8.6c-19,0-34.9-0.5-52.3-0.5c-5.7,0.1-9.2-1.6-11.8-6.1l-113.5-218.8 c-2.3-3.2-2.8-3.9-4.4-5.7c-4-1.6-7-0.4-9.3,4.1l-110.9,211.7c0,0-6.8,15-13.5,15c-17.9-0.1-35.1-1-53-1c-7.9,0-7.9-6.2-7.5-7.8 c5.4-9.5,7.7-14.4,9.8-19.2L1163.6,8.4z"/>
  <path class="st1" d="M656.4,263.2c-4.4-9.9-13.1-20.4-18.5-26.6c-8.1-7.8-14.3-13.1-25.4-17c0.7-1.8,1.8-2.2,2.8-2.8 c8.8-5.5,15.6-13,20.9-21.8c8.3-13.9,12.6-28.8,12.2-45.1c-1.1-4.1,0.5-8.1,0-12.3c-1.9-16.9-7.9-32.1-17.9-45.8 c-0.7-1-1.6-1.9-2.5-2.8c-5.1-4.8-9.5-10.1-15.3-14.2c-2.1-1.5-4.3-2.9-6.4-4.4c-8.6-5.9-18.2-9.4-28.1-12.2c-1.6-0.4-3.2-1-4.8-1.6 c-11.9-2.6-23.9-3-36.1-2.8c-53.7,0.5-107.3,0.2-161,0.2c-2,0-4,0.2-6-0.4c-6.9-2.3-14,4-12.1,11.1c1.3,2.9,1.6,6,1.6,9.2 c0,102.2,0,204.4-0.1,306.6c0,8.8,0.6,17.6-0.8,26.4c0.4,3.5,2.4,5.5,5.9,5.9c54.8,0.2,168.5,0.5,175.5,0.5 c13.3,0,42.5-3.9,50.2-6.7c31.8-11.5,72.9-38.8,72.9-82.5C664.1,319.5,667.1,285.7,656.4,263.2z M419.4,115.5c0-6.6,2.3-8.9,9-8.9 c35.5,0,71,0,106.5,0.2c6.7,0,52.6,4.5,53,45.7c0.3,28.7-14.1,47.1-38.6,47.1c-11.5,0-102.4,0.1-120.9,0.1c-7,0-9-1.9-9-8.7 C419.4,165.8,419.4,140.7,419.4,115.5z M567.5,356.5c-5.5,1.3-51.1,3.5-67.9,3.5c-35.1,0.1-35.1,0-70.2,0c-8.5,0-10.2-1.7-10.2-10.2 c0-29.1,0-58.3,0-87.4c0-8.6,2-10.6,10.5-10.6c19.7,0,46.1,0,69,0c16.7,0.3,55.2-1.1,74.8,5.6c17.5,6,31.2,20.3,31.2,48.1 C604.7,331.7,586.7,351.8,567.5,356.5z"/>
  <path class="st1" d="M298.3,260.7c-10.4-20-32.8-39.7-43.9-43.6c0.7-1.8,1.8-2.2,2.8-2.8c8.8-5.5,15.6-13,20.9-21.8 c8.3-13.9,12.6-28.8,12.2-45.1c-1.1-4.1,0.5-8.1,0-12.3c-1.9-16.9-7.9-32.1-17.9-45.8c-0.7-1-1.6-1.9-2.5-2.8 c-5.1-4.8-9.5-10.1-15.3-14.2c-2.1-1.5-4.3-2.9-6.4-4.4c-8.6-5.9-18.2-9.4-28.1-12.2c-1.6-0.4-3.2-1-4.8-1.6 c-11.9-2.6-23.9-3-36.1-2.8c-53.7,0.5-107.3,0.2-161,0.2c-2,0-4,0.2-6-0.4c-6.9-2.3-14,4-12.1,11.1c1.3,2.9,1.6,6,1.6,9.2 c0,102.2,0,204.4-0.1,306.6c0,8.8,0.6,17.6-0.8,26.4c0.4,3.5,2.4,5.5,5.9,5.9c54.8,0.2,168.5,0.5,175.5,0.5 c13.3,0,42.5-3.9,50.2-6.7c31.8-11.5,67.1-39.2,72.9-82.5C307.6,306.8,309.6,282.4,298.3,260.7z M61.4,113c0-6.6,2.3-8.9,9-8.9 c35.5,0,71,0,106.5,0.2c6.7,0,52.6,4.5,53,45.7c0.3,28.7-15.9,42.4-40.1,46.1c-10.6,1.6-100.9,1.1-119.4,1.1c-7,0-9-1.9-9-8.7 C61.3,163.3,61.3,138.2,61.4,113z M209.5,354c-5.5,1.3-51.1,3.5-67.9,3.5c-35.1,0.1-35.1,0-70.2,0c-8.5,0-10.2-1.7-10.2-10.2 c0-29.1,0-58.3,0-87.4c0-8.6,2-10.6,10.5-10.6c19.7,0,46.1,0,69,0c16.7,0.3,55.2-1.1,74.8,5.6c17.5,6,31.2,20.3,31.2,48.1 C246.7,329.2,228.6,349.3,209.5,354z"/>
</svg>
