<?xml version="1.0" encoding="utf-8"?>
<svg xmlns="http://www.w3.org/2000/svg" id="Layer_1" x="0px" y="0px" viewBox="-24.454 -62.038 917.904 397.098" style="enable-background:new 0 0 856.5 265.8;">
  <style type="text/css">
	.st0{fill:#1EC677;}
</style>
  <g>
    <path class="st0" d="M610.8,77L610.8,77c-15.8,0-34.7,5.6-52.8,25.2C539.9,82.7,520.9,77,505.2,77l0,0c0,0-60.4-4.6-60.4,66v114.2 h43.8V149.5c0-31.6,21.2-32.3,25.3-31.3c0,0,7.6,0.4,14.6,7.6c0,0-13.9,18.2-15,41.1c0,0-3.1,59.3,44.5,59.3 c47.5,0,44.5-59.3,44.5-59.3c-1.1-22.9-15-41.1-15-41.1c7-7.2,14.6-7.6,14.6-7.6c4-0.9,25.3-0.3,25.3,31.3v107.8h43.8V143.1 C671,72.5,610.8,77,610.8,77z M557.9,194.1c-9.4,0-12.5-11.8-12.6-23c-0.3-19.6,12.5-33.6,12.6-33.9c0.3,0.3,12.9,14.3,12.6,33.9 C570.5,182.3,567.3,194.1,557.9,194.1z"/>
    <rect x="376.4" y="80" class="st0" width="43.8" height="177.4"/>
    <path class="st0" d="M398.4,3.1c-14.6,0-26.6,11.8-26.6,26.3c0,14.6,11.9,26.6,26.6,26.6c14.5,0,26.3-11.9,26.3-26.6 C424.6,15.2,412.7,3.1,398.4,3.1z"/>
    <path class="st0" d="M237.8,91.9v-90h-43.4v255.5h43.4V129.5c71.9-35,69.2,20.4,69.2,20.4v107.5h43.5V149.9 C350.4,46,259.6,80.2,237.8,91.9z"/>
    <path class="st0" d="M731.3,177.3c23.3,8.2,52.9,7.5,52.9,7.5c70.2-0.4,68.2-51.4,68.2-51.4C850.6,76,783.1,77,783.1,77 c-55.8,0-95,38.3-95,93.1c0,54.8,38.3,90.1,97.5,90.1c25.2,0,49.1-7,65.9-19.2v-42.2C834,214,813,222.1,790.8,222.1 C790.9,222.1,730.1,225.2,731.3,177.3z M736.7,140c7.4-18.6,22.6-28.4,44.3-28.4c17.8,0,28.1,7.5,28.1,19.4 c0,16.7-18.9,18.2-36.6,18.2c-17.4,0-28.1-1.9-32.9-3.1l-4.7-1.1L736.7,140z"/>
    <path class="st0" d="M104.5,260.2c30.8,0,52.6-11.7,65.6-21.4v-42.5c-19.2,15.1-41.6,23.8-61.6,23.8c-31.9,0-54.2-22-54.2-53.6 c0-30,20.4-50.9,49.4-50.9c9.5,0,17.7,2.4,26.4,4.8c9,2.5,18.3,5.4,29.5,5.4c3.5,0,7-0.3,10.4-0.8V84.7c-2.9,0.3-5.8,0.5-8.7,0.5 c-10,0-19.1-1.9-28.7-3.9c-10-2.1-20.4-4.3-32.5-4.3c-24.2,0-46.7,8.6-63.2,24.4c-17.5,16.7-26.9,40-26.9,67.2 C10,222.6,48.8,260.2,104.5,260.2z"/>
  </g>
</svg>
