<svg id="emitra_logo" data-name="emitra logo" xmlns="http://www.w3.org/2000/svg" xmlns:xlink="http://www.w3.org/1999/xlink" width="512.579" height="189.654" viewBox="0 0 512.579 189.654">
  <defs>
    <linearGradient id="linear-gradient" x1="0.5" x2="0.5" y2="1" gradientUnits="objectBoundingBox">
      <stop offset="0" stop-color="#efdf10"/>
      <stop offset="1" stop-color="#f38120"/>
    </linearGradient>
    <clipPath id="clip-path">
      <path id="Path_66663" data-name="Path 66663" d="M94.647,189.148a3.121,3.121,0,0,1-2.561-2.554c0-1.1-1.255-1.992-2.792-1.992s-2.766-.715-2.766-1.456-.948-1.379-2.1-1.379S82.3,180.489,82.3,178.8c0-2.069-.615-2.682-2.152-2.095s-1.819.255-1.229-.715a2.067,2.067,0,0,0-.973-2.708c-1.537-.945-1.562-1.558-.179-2.937,2.741-2.708,2.049-5.109-1.767-5.926s-26.331,22.4-23.8,19.872c1.05-1.047.768-2.2-.973-3.908-2.331-2.35-2.561-2.324-3.509.383a2.843,2.843,0,0,1-3.33,2.273,2.308,2.308,0,0,1-.563-.153c-1.562-.409-2.689-1.481-2.561-2.35s-1.178-1.609-3-1.635c-2.305,0-3.868-1.277-5.123-4.189-1-2.273-1.9-3.218-1.972-2.043s-.538,1.533-1.153.664-5.276-1.43-10.476-1.4-9.477-.383-9.477-.868-1.588-1.3-3.56-1.788-3.2-1.456-2.792-2.12,16.751-36.756,16.213-36.91c-1.793-.766,8.12,10.37,8.12,6.59S128.764,40.845,129.814,42.148c-1.665-4.751-8.3-3.116-6.634-3.116,2.331,0,39.829-45.135,41.264-38.315.948,4.419,1.819,8.812,1.947,9.783a1.944,1.944,0,0,0,1.844,1.737A10.732,10.732,0,0,1,173,15.583c2.561,2.708,2.971,4.266,2.177,8.378-.512,2.784-.41,5.109.256,5.109l4.354.46c2.408.281,2.792,0,1.614-1.456s-.922-2.427.743-4.112c2.356-2.35,6.4-1.814,6.4.843,0,.894,1.281.639,3.125-.664,4.534-3.167,5.123-2.759,3.919,3.218a10.192,10.192,0,0,0,.9,7.969c1.793,2.427,1.87,2.427,1.87-.358,0-1.967,1.1-3.091,3.509-3.55,2-.383-26.1,47.1-26,47.97s-3.3,2.554-3.125,4.266a8.168,8.168,0,0,0,2.843,5.109,3.546,3.546,0,0,1,1.562,4.393,2.881,2.881,0,0,0,.768,3.6c1.2.741.564,1.533-2.049,2.554-3.842,1.456-4.892,3.474-2.561,4.93a1.155,1.155,0,0,0,1.614-.332,2.546,2.546,0,0,0,.179-.383c.256-.817,3.1-1.686,6.25-1.916a24.93,24.93,0,0,0,7.633-1.584c1.1-.69,1.511-.2,1.2,1.43-.538,2.682-.666,2.784-13.806,9.068s-15.138,7.535-20.158,12.414c-2.561,2.4-4.995,3.908-5.533,3.372s-.82,1.175-.615,3.831c.538,6.488,3.868,8.659,12.346,8.072,6.66-.46,8.35.46,8.35,4.547,0,.69-2.92,1.277-6.455,1.277-5.789,0-6.4.281-5.737,2.784.384,1.558.179,2.81-.512,2.81s-.845.945-.41,2.095a3.406,3.406,0,0,0,2.869,2.094c1.2,0,1.844,1,1.537,2.554a2.561,2.561,0,0,1-2.843,2.043h-.256c-2.254-.383-2.561.23-1.793,4.547.845,5.109-.435,6.335-3.483,3.091-1.229-1.3-3-1.558-5.661-.792-2.254.639-3.893.562-3.893-.179,0-2.018-3.279-.894-5.328,1.839-2.561,3.5-3.97,3.04-5.737-1.967-1.921-5.543-1.947-5.364.717-5.364,1.486,0,1.972-.766,1.409-2.222a13.176,13.176,0,0,1-.973-4.138c0-1.149-2.2-1.788-6.25-1.865-7.838,0-10.246-1.379-6.941-3.755,2.177-1.584,2.2-2.069.333-4.751l-2.126-2.989-1.588,3.474c-1.562,3.448-4.457,4.8-4.457,2.095a1.381,1.381,0,0,0-1.358-1.4c-.871,0-.871,1.328,0,3.7,1.281,3.4,1.2,3.55-.973,1.737s-2.331-1.635-1.614,1.124c.461,1.711,0,3.372-.794,3.729s-.922,1.149.487,2.12c2.254,1.558,2.1,3.04-.487,4.674-1.05.69-.845,1.047.692,1.047,2.561,0,4.2,4.47,2.561,7.2a12.743,12.743,0,0,0-1.229,5.568c0,2.759-1.076,4.112-4.226,5.415-4.457,1.839-5.763,5.594-1.921,5.594,1.665,0,1.87.46.768,1.788C103.535,189.582,98.873,190.221,94.647,189.148Zm31.172-16.475a5.1,5.1,0,0,0-.359-1.558c-.179-.536,1.562-1,3.868-1.047,5.276,0,5.558,2.376.359,2.937C127.509,173.158,125.819,173.031,125.819,172.673Z" transform="translate(-3.639 -0.015)" fill="none"/>
    </clipPath>
  </defs>
  <g id="Group_60736" data-name="Group 60736" transform="translate(0 0)">
    <g id="e-mitra_logo" data-name="e-mitra logo" transform="translate(0 0)">
      <path id="rajasthan_map" data-name="rajasthan map" d="M100.152,179.865a3.1,3.1,0,0,1-2.561-2.554c0-1.1-1.255-1.992-2.792-1.992s-2.587-.715-2.587-1.43-.948-1.4-2.1-1.4-2.1-1.251-2.1-2.937-.64-2.707-2.177-2.094-1.819.255-1.2-.715a2.066,2.066,0,0,0-.973-2.707c-1.537-.945-1.562-1.558-.179-2.911,2.715-2.732,2.049-5.107-1.767-5.925s-4.508-3.447-2-5.95c1.05-1.047.768-2.2-.973-3.907-2.331-2.324-2.561-2.324-3.483.383a2.843,2.843,0,0,1-3.33,2.273,2.308,2.308,0,0,1-.563-.153c-1.562-.409-2.689-1.456-2.561-2.349s-1.255-1.532-3.074-1.532c-2.28,0-3.842-1.3-5.123-4.188-1-2.273-1.9-3.218-1.972-2.068s-.538,1.532-1.153.664S52.2,136.963,47,136.988s-9.426-.383-9.426-.868-1.614-1.3-3.56-1.788-3.2-1.43-2.792-2.12.615-3.524,0-3.779C29.433,127.667,20.8,114.924,20.8,111.17s.333-4.316-3.945-3.473c-2.075.383-3.125-.792-4.585-5.107s-1.486-5.822-.179-6.257,1.691-2.732,1.691-5.363c0-4.239-.487-4.9-4.2-5.644a9.9,9.9,0,0,1-4.995-2.094,1.693,1.693,0,0,0-2.305-.562c-.845.536-1.1.306-.589-.562A1.274,1.274,0,0,0,1.411,80.3,1.231,1.231,0,0,0,1,80.117C-.074,79.76-.279,77.845.361,74.4a11.265,11.265,0,0,1,6.25-8.5,29.169,29.169,0,0,0,7.53-6.742c5.558-8.453,10.066-10.215,12.141-4.8C28.51,60.2,30.918,61.169,37.6,58.82a18.646,18.646,0,0,1,8.632-1.3c2.971.945,10.963-.511,10.578-1.941A8.742,8.742,0,0,1,58.2,51.695c.922-1.634,1.229-3.4.692-3.907s0-.562,1.383,0c1.742.664,2.92-.434,4.713-4.469A21.456,21.456,0,0,0,67.11,36.7c-.128-.638.384-.766,1.153-.306,1.87,1.175,12.807-4.418,15.829-8.1,3.868-4.648,8.3-14.888,7.428-17.161-.435-1.124-.179-1.634.615-1.175s1.383.2,1.383-.613,1.844-1.481,4.1-1.481a7.29,7.29,0,0,0,5.123-1.4c.538-.868,1.665-.613,2.971.689A8.466,8.466,0,0,0,110.833,9.3a9.8,9.8,0,0,1,5.123,1.762c2.561,2.12,3.74,12.156,1.332,12.156-1.255,0-1.2.562.154,2.171a4.773,4.773,0,0,0,4.892,1.4,4.825,4.825,0,0,1,4.815,1.328,6.977,6.977,0,0,0,4.764,2.068c2.561,0,3.279,1.251,4.739,8.019.922,4.392,1.793,8.785,1.921,9.755a1.97,1.97,0,0,0,1.844,1.737,10.707,10.707,0,0,1,4.764,3.32c2.561,2.732,2.946,4.265,2.177,8.376-.512,2.783-.41,5.107.256,5.107l4.329.46c2.561.281,2.792,0,1.614-1.481s-.922-2.4.768-4.086c2.356-2.349,6.378-1.813,6.378.843,0,.894,1.281.638,3.125-.664,4.508-3.141,4.995-2.758,3.919,3.218a9.984,9.984,0,0,0,.871,7.942c1.793,2.426,1.87,2.426,1.87-.332,0-1.992,1.127-3.115,3.509-3.575,1.972-.383,3.56,0,3.663.894s.333,2.988.512,4.75a8.14,8.14,0,0,0,2.843,5.107,3.519,3.519,0,0,1,1.562,4.367,2.905,2.905,0,0,0,.768,3.6c1.2.766.564,1.532-2.049,2.554-3.842,1.456-4.867,3.473-2.561,4.929a1.18,1.18,0,0,0,1.639-.332,1.2,1.2,0,0,0,.154-.383c.282-.817,3.074-1.685,6.25-1.915a24.6,24.6,0,0,0,7.454-1.456c1.127-.715,1.511-.23,1.2,1.4-.538,2.681-.666,2.784-13.78,9.066s-15.163,7.533-20.286,12.385c-2.561,2.4-4.969,3.933-5.507,3.371s-.82,1.175-.615,3.831c.538,6.486,3.868,8.657,12.346,8.07,6.634-.46,8.324.434,8.324,4.52,0,.689-2.894,1.277-6.455,1.277-5.763,0-6.378.281-5.712,2.784.384,1.532.179,2.784-.512,2.784s-.845.945-.41,2.094a3.406,3.406,0,0,0,2.843,2.094c1.229,0,1.87,1,1.562,2.554a2.56,2.56,0,0,1-2.843,2.043h-.256c-2.254-.383-2.561.2-1.793,4.546.845,5.107-.435,6.333-3.483,3.064-1.229-1.3-2.971-1.558-5.635-.792-2.254.638-3.868.562-3.868-.179,0-2.017-3.3-.868-5.328,1.839-2.561,3.5-4,3.039-5.737-1.941-1.921-5.541-1.947-5.363.717-5.363,1.486,0,1.947-.766,1.409-2.222a14.058,14.058,0,0,1-.768-4.214c0-1.124-2.177-1.788-6.2-1.839-7.838-.128-10.246-1.4-6.941-3.78,2.177-1.558,2.2-2.043.307-4.724l-2.1-2.988-1.588,3.473c-1.562,3.448-4.431,4.775-4.431,2.094a1.406,1.406,0,0,0-1.358-1.4c-.9,0-.871,1.328,0,3.7,1.306,3.371,1.2,3.524-.973,1.736s-2.305-1.634-1.588,1.124c.435,1.711,0,3.345-.794,3.728s-.948,1.124.487,2.094c2.254,1.558,2.1,3.039-.487,4.673-1.076.664-.845,1.021.666,1.047,2.561,0,4.2,4.443,2.561,7.176a13.067,13.067,0,0,0-1.229,5.567c0,2.758-1.076,4.111-4.226,5.414-4.431,1.839-5.737,5.567-1.921,5.567,1.691,0,1.9.46.794,1.788C109.014,180.3,104.378,180.937,100.152,179.865Zm31.1-16.446a5.986,5.986,0,0,0-.333-1.634c-.2-.511,1.537-1,3.842-1.047,5.123,0,5.558,2.375.333,2.937-2.1.23-3.842.128-3.842-.255Z" transform="translate(0.002 9.269)" fill="url(#linear-gradient)"/>
      <g id="e-mitra_logo-2" data-name="e-mitra logo-2" transform="translate(9.325)">
        <path id="Path_66556" data-name="Path 66556" d="M14.89,38.406s30.071-8.529,57.759,4.277c.487,0-3,1.742-8.273,4.867a28.918,28.918,0,0,0-9.887,9.784s5.123,6.557,16.572,3.2l12.5-5.123s6.66-3.483,9.2-.589c0,0,20.337,16.828,25.614,32.171,0,0-8.657,1.358-13.242-3.33a35.857,35.857,0,0,1-4.482-5.353,27.331,27.331,0,0,0-5.866-5.866c-4.2-3.048-8.786-7.044-11.936-7.684,0,0-.64,1.153,0,1.562A47.821,47.821,0,0,1,105.9,90.991a23.055,23.055,0,0,1-4.687,1.255s-1.537.871-5.4-2c0,0-17.7-14.933-19.62-15.522l-.871,1.87s14.933,10.63,20.978,17.93v2.126s-3.3,3.458-12.423-1.691a25.9,25.9,0,0,1-3.125-2.792c0-.461-10.553-9.067-10.553-9.067s-.589,1.639,0,2.331c0,0,14.472,12.218,15.368,14.395,0,0,.179,3.176-4.329,2.561a16.854,16.854,0,0,1-8.043-4.329A44.824,44.824,0,0,0,60,90.5a71.717,71.717,0,0,0-15.7-4l-13.012.2Z" transform="translate(13.927 55.195)" fill="#151d53"/>
        <path id="Path_66557" data-name="Path 66557" d="M85.282,27.11A31.044,31.044,0,0,0,72.834,30,112.7,112.7,0,0,0,55.571,37.97,88.6,88.6,0,0,0,39.69,50.777a151.124,151.124,0,0,1,17.93-8.939,104.377,104.377,0,0,1,14.933-4.764S80.877,35.639,82.8,35.05Z" transform="translate(52.649 42.071)" fill="#fff"/>
        <path id="Path_66558" data-name="Path 66558" d="M91.44,31,88.162,41.02s-11.372,0-12.038-.256A119.1,119.1,0,0,0,59.6,42.4s-9.247,1.947-11.885,2.971c0,0-7.044,1.9-8.248,2.433,0,0,3.15-3.458,16.342-8.888a73.256,73.256,0,0,1,16.137-5.481S83.807,30.16,91.44,31Z" transform="translate(52.306 47.914)" fill="#fff"/>
        <path id="Path_66559" data-name="Path 66559" d="M109.322,37.054A95.718,95.718,0,0,0,73.1,36.516,108.192,108.192,0,0,0,42.368,47.991a45.566,45.566,0,0,0-11.6,9.221s-.922,4.021,8.683,3.919c0,0,5.507-.307,15.368-5.558,0,0,6.685-4,10.86-2.894,0,0,16.521,9.221,28.713,32.991C94.44,85.669,109.809,45.43,109.322,37.054Z" transform="translate(38.676 54.343)" fill="#fff"/>
        <g id="Group_59385" data-name="Group 59385" clip-path="url(#clip-path)">
          <g id="Mask_Group_1" data-name="Mask Group 1" transform="translate(14.017 32.804)">
            <path id="Exclusion_2" data-name="Exclusion 2" d="M13.077,141.983a21.663,21.663,0,0,1-3.483-17.037,66.3,66.3,0,0,1,8.862-22.989C28.523,84.511,45.53,65.993,66.328,49.747S109.308,21.65,128.672,16a67.308,67.308,0,0,1,24.564-3.014,21.8,21.8,0,0,1,15.727,7.484c3.355,4.24,4.508,9.987,3.483,17.037A66.3,66.3,0,0,1,163.584,60.5c-10.041,17.42-27.048,35.965-47.872,52.184S72.86,140.936,53.368,146.453A67.821,67.821,0,0,1,28.8,149.467C21.632,148.752,16.51,146.249,13.077,141.983ZM168.809,20.577c-2.946-3.78-7.863-5.824-14.625-6.1a69.149,69.149,0,0,0-23.616,4.138c-18.826,6.181-40.623,18.519-61.473,34.713s-38.062,34.33-48.666,51.086A68.54,68.54,0,0,0,10.7,126.274c-1.358,6.59-.538,11.852,2.408,15.607s7.863,5.824,14.625,6.1a69.045,69.045,0,0,0,23.616-4.138c18.826-6.181,40.623-18.519,61.473-34.713s38.036-34.33,48.666-51.086a67.979,67.979,0,0,0,9.733-21.839c1.357-6.59.563-11.852-2.408-15.607Z" transform="translate(-9.112 -12.858)" fill="#9ea1af"/>
          </g>
        </g>
        <path id="Path_66560" data-name="Path 66560" d="M69.651,47.54a91.031,91.031,0,0,0-48.871-6.224L17.63,31.48S51.389,31.352,69.651,47.54Z" transform="translate(18.205 48.87)" fill="#151d53"/>
        <path id="Path_66561" data-name="Path 66561" d="M65.975,50.793A95.642,95.642,0,0,0,19.46,27.1l3.509,9.631S40.54,37.858,65.975,50.793Z" transform="translate(21.063 42.056)" fill="#151d53"/>
      </g>
      <g id="Effective_Governance_Better_Citizen_Services" data-name="Effective Governance Better Citizen Services" transform="translate(202.243 108.785)">
        <g id="Group_59386" data-name="Group 59386" transform="translate(0 0)">
          <path id="Path_66664" data-name="Path 66664" d="M79,61.555V42.78H92.6v2.2H81.561v5.763h10.4v2.2h-10.4v6.4H93.113v2.2Z" transform="translate(-79 -42.439)" fill="#050505"/>
          <path id="Path_66665" data-name="Path 66665" d="M87.249,61.763V49.955H85.2V48.162h2.049V46.7a6.61,6.61,0,0,1,.231-2.023,2.972,2.972,0,0,1,1.178-1.46,4.124,4.124,0,0,1,2.357-.563,11.421,11.421,0,0,1,2.151.231l-.359,2.023a6.25,6.25,0,0,0-1.357-.128,2.152,2.152,0,0,0-1.486.435,2.561,2.561,0,0,0-.435,1.691v1.255H92.09v1.793H89.529V61.763Z" transform="translate(-69.319 -42.647)" fill="#050505"/>
          <path id="Path_66666" data-name="Path 66666" d="M89.859,61.762V49.954H87.81V48.161h2.049V46.7a6.606,6.606,0,0,1,.231-2.023,2.971,2.971,0,0,1,1.178-1.46,4.175,4.175,0,0,1,2.356-.564,11.425,11.425,0,0,1,2.152.231l-.359,2.023a6.251,6.251,0,0,0-1.358-.128,2.152,2.152,0,0,0-1.486.435,2.561,2.561,0,0,0-.435,1.691v1.255H94.7v1.793H92.139V61.762Z" transform="translate(-65.244 -42.646)" fill="#050505"/>
          <path id="Path_66667" data-name="Path 66667" d="M101.025,54.195l2.382.307a5.814,5.814,0,0,1-2.075,3.227,7.069,7.069,0,0,1-8.632-.692,7.2,7.2,0,0,1-1.742-5.123,7.505,7.505,0,0,1,1.767-5.328,6.019,6.019,0,0,1,4.585-1.9,5.84,5.84,0,0,1,4.457,1.844,7.453,7.453,0,0,1,1.742,5.251V52.4H93.264a5.123,5.123,0,0,0,1.281,3.432,3.714,3.714,0,0,0,2.843,1.178,3.381,3.381,0,0,0,2.152-.666A4.329,4.329,0,0,0,101.025,54.195Zm-7.684-3.714h7.684a4.739,4.739,0,0,0-.871-2.561,3.535,3.535,0,0,0-2.869-1.332,3.714,3.714,0,0,0-2.561,1.05,4.277,4.277,0,0,0-1.281,2.971Z" transform="translate(-60.351 -39.458)" fill="#050505"/>
          <path id="Path_66668" data-name="Path 66668" d="M106.27,53.623l2.254.282a5.712,5.712,0,0,1-1.9,3.663,5.507,5.507,0,0,1-3.765,1.332,5.84,5.84,0,0,1-4.482-1.819,7.454,7.454,0,0,1-1.716-5.123,9.478,9.478,0,0,1,.871-3.893A5.123,5.123,0,0,1,99.764,45.5a6.737,6.737,0,0,1,3.253-.82,5.481,5.481,0,0,1,3.611,1.127,5.122,5.122,0,0,1,1.819,3.176l-2.254.333a3.714,3.714,0,0,0-1.127-2.049,2.946,2.946,0,0,0-1.972-.692,3.509,3.509,0,0,0-2.818,1.255,5.815,5.815,0,0,0-1.1,3.945,6.275,6.275,0,0,0,.922,3.97,3.432,3.432,0,0,0,2.741,1.229,3.355,3.355,0,0,0,2.28-.82A4.355,4.355,0,0,0,106.27,53.623Z" transform="translate(-51.431 -39.476)" fill="#050505"/>
          <path id="Path_66669" data-name="Path 66669" d="M107.841,59.256l.333,2.023a7.454,7.454,0,0,1-1.742.2,4.022,4.022,0,0,1-1.947-.384,2.254,2.254,0,0,1-.973-1.05,8.478,8.478,0,0,1-.282-2.715V49.5H101.54V47.7h1.691V44.323l2.28-1.383V47.7h2.331V49.5H105.51v7.966a4.023,4.023,0,0,0,0,1.255,1.025,1.025,0,0,0,.41.461,1.562,1.562,0,0,0,.768.154Z" transform="translate(-43.807 -42.189)" fill="#050505"/>
          <path id="Path_66670" data-name="Path 66670" d="M104.92,45.371V42.81h2.305v2.561Zm0,16.137v-13.6h2.305v13.6Z" transform="translate(-38.529 -42.392)" fill="#050505"/>
          <path id="Path_66671" data-name="Path 66671" d="M111.783,58.4,106.66,44.8h2.561l2.741,8.2a28.584,28.584,0,0,1,.871,2.741c.2-.717.512-1.588.871-2.561l3.022-8.3h2.382l-5.123,13.6Z" transform="translate(-35.812 -39.285)" fill="#050505"/>
          <path id="Path_66672" data-name="Path 66672" d="M122.161,54.195l2.382.307a5.814,5.814,0,0,1-2.1,3.227,7.069,7.069,0,0,1-8.632-.692,7.2,7.2,0,0,1-1.742-5.123,7.5,7.5,0,0,1,1.767-5.328,6.019,6.019,0,0,1,4.585-1.9,5.84,5.84,0,0,1,4.457,1.844,7.453,7.453,0,0,1,1.742,5.251V52.4H114.374a5.122,5.122,0,0,0,1.281,3.432,3.714,3.714,0,0,0,2.843,1.178,3.381,3.381,0,0,0,2.152-.666,4.329,4.329,0,0,0,1.511-2.152Zm-7.684-3.586h7.684a4.534,4.534,0,0,0-.871-2.561,3.535,3.535,0,0,0-2.869-1.332,3.714,3.714,0,0,0-2.561,1.05,4.277,4.277,0,0,0-1.383,2.843Z" transform="translate(-27.39 -39.458)" fill="#050505"/>
          <path id="Path_66673" data-name="Path 66673" d="M130.267,54.392V52.164h7.94v6.967a13.908,13.908,0,0,1-3.868,2.331,11.373,11.373,0,0,1-4,.743,10.63,10.63,0,0,1-5.123-1.2,7.684,7.684,0,0,1-3.407-3.407,10.887,10.887,0,0,1-1.153-5.123,11.629,11.629,0,0,1,1.153-5.123,7.479,7.479,0,0,1,3.279-3.535,10.374,10.374,0,0,1,4.969-1.153,9.964,9.964,0,0,1,3.688.666,6.1,6.1,0,0,1,2.561,1.844,7.685,7.685,0,0,1,1.409,3.074l-2.228.615a7.122,7.122,0,0,0-1.05-2.254,4.149,4.149,0,0,0-1.793-1.306,6.558,6.558,0,0,0-2.561-.512,7.5,7.5,0,0,0-2.971.538,5.4,5.4,0,0,0-2,1.358,6.455,6.455,0,0,0-1.178,1.844,9.784,9.784,0,0,0-.717,3.791,9.016,9.016,0,0,0,.871,4.2,5.43,5.43,0,0,0,2.561,2.561,7.684,7.684,0,0,0,3.509.82,8.4,8.4,0,0,0,3.15-.615,7.684,7.684,0,0,0,2.331-1.332v-3.56Z" transform="translate(-13.955 -42.627)" fill="#050505"/>
          <path id="Path_66674" data-name="Path 66674" d="M128.5,51.8a7.069,7.069,0,0,1,2.1-5.609,6.429,6.429,0,0,1,4.277-1.511,6.147,6.147,0,0,1,4.61,1.844,7.018,7.018,0,0,1,1.767,5.123,8.812,8.812,0,0,1-.794,4.124,5.481,5.481,0,0,1-2.28,2.356,6.865,6.865,0,0,1-3.3.82,6.173,6.173,0,0,1-4.611-1.819A7.351,7.351,0,0,1,128.5,51.8Zm2.382,0a5.789,5.789,0,0,0,1.127,3.893,3.791,3.791,0,0,0,5.737,0,5.866,5.866,0,0,0,1.153-3.97,5.635,5.635,0,0,0-1.153-3.842,3.791,3.791,0,0,0-5.737,0A5.865,5.865,0,0,0,130.886,51.8Z" transform="translate(-1.741 -39.474)" fill="#050505"/>
          <path id="Path_66675" data-name="Path 66675" d="M139.123,58.4,134,44.8h2.562L139.3,53a28.588,28.588,0,0,1,.871,2.741c.2-.717.512-1.588.871-2.561l3.022-8.3h2.382l-5.123,13.6Z" transform="translate(6.876 -39.285)" fill="#050505"/>
          <path id="Path_66676" data-name="Path 66676" d="M149.451,54.195l2.382.307a5.815,5.815,0,0,1-2.1,3.227,7.069,7.069,0,0,1-8.632-.692,7.2,7.2,0,0,1-1.742-5.123,7.5,7.5,0,0,1,1.767-5.328,6.019,6.019,0,0,1,4.585-1.9,5.84,5.84,0,0,1,4.457,1.844,7.454,7.454,0,0,1,1.742,5.251V52.4H141.664a5.3,5.3,0,0,0,1.281,3.432,3.714,3.714,0,0,0,2.843,1.178,3.382,3.382,0,0,0,2.152-.666,4.329,4.329,0,0,0,1.511-2.152Zm-7.684-3.714h7.684a4.533,4.533,0,0,0-.871-2.561,3.534,3.534,0,0,0-2.869-1.332,3.714,3.714,0,0,0-2.561,1.05,4.278,4.278,0,0,0-1.281,2.971Z" transform="translate(15.22 -39.458)" fill="#050505"/>
          <path id="Path_66677" data-name="Path 66677" d="M145.34,58.588v-13.6h2.075v2.049a6.021,6.021,0,0,1,1.46-1.9,2.561,2.561,0,0,1,1.486-.461,4.611,4.611,0,0,1,2.382.743l-.794,2.126a3.278,3.278,0,0,0-1.69-.487,2.126,2.126,0,0,0-1.358.461,2.562,2.562,0,0,0-.871,1.255,8.988,8.988,0,0,0-.384,2.561V58.46Z" transform="translate(24.581 -39.472)" fill="#050505"/>
          <path id="Path_66678" data-name="Path 66678" d="M148.76,58.591V44.99h2.075v1.921a4.943,4.943,0,0,1,4.354-2.228,5.891,5.891,0,0,1,2.254.435,3.689,3.689,0,0,1,1.537,1.153,4.509,4.509,0,0,1,.64,1.793,14.389,14.389,0,0,1,.128,2.254v8.35h-2.305v-8.35a6.171,6.171,0,0,0-.256-2.1,2.3,2.3,0,0,0-.973-1.127,2.945,2.945,0,0,0-1.588-.41,3.791,3.791,0,0,0-2.561.922,4.662,4.662,0,0,0-1.076,3.56v7.428Z" transform="translate(29.921 -39.475)" fill="#050505"/>
          <path id="Path_66679" data-name="Path 66679" d="M163.881,56.927a8.763,8.763,0,0,1-2.561,1.537,7.685,7.685,0,0,1-2.561.435,4.841,4.841,0,0,1-3.432-1.1,3.509,3.509,0,0,1-1.2-2.792,3.611,3.611,0,0,1,.461-1.819,3.509,3.509,0,0,1,1.178-1.332,5.123,5.123,0,0,1,1.665-.743,13.446,13.446,0,0,1,2.049-.359,22.08,22.08,0,0,0,4.124-.794v-.589a2.561,2.561,0,0,0-.666-2,3.894,3.894,0,0,0-2.561-.794,4.073,4.073,0,0,0-2.408.589,3.561,3.561,0,0,0-1.153,2l-2.254-.307a5.43,5.43,0,0,1,1.025-2.331,4.353,4.353,0,0,1,2.024-1.358,8.836,8.836,0,0,1,3.1-.487,7.889,7.889,0,0,1,2.818.41,3.739,3.739,0,0,1,1.614,1.025,3.662,3.662,0,0,1,.717,1.562,13.084,13.084,0,0,1,.128,2.152v3.074a39.7,39.7,0,0,0,0,4.047,5.123,5.123,0,0,0,.589,1.639h-2.408a5.121,5.121,0,0,1-.282-1.665ZM163.7,51.8a18.674,18.674,0,0,1-3.791.871,7.682,7.682,0,0,0-2,.461,1.9,1.9,0,0,0-.922.743,2.049,2.049,0,0,0-.307,1.1,1.972,1.972,0,0,0,.692,1.537,3.022,3.022,0,0,0,2.049.615,4.739,4.739,0,0,0,2.356-.589,3.663,3.663,0,0,0,1.537-1.588,5.507,5.507,0,0,0,.384-2.305Z" transform="translate(38.289 -39.475)" fill="#050505"/>
          <path id="Path_66680" data-name="Path 66680" d="M160.16,58.591V44.99h2.151v1.921a4.918,4.918,0,0,1,4.329-2.228,6.019,6.019,0,0,1,2.28.435,3.688,3.688,0,0,1,1.537,1.153,4.507,4.507,0,0,1,.717,1.716,14.4,14.4,0,0,1,0,2.254v8.35h-2.305V50.318a6.071,6.071,0,0,0-.282-2.1,2.255,2.255,0,0,0-.948-1.127,3.022,3.022,0,0,0-1.614-.41,3.765,3.765,0,0,0-2.561.922,4.662,4.662,0,0,0-1.076,3.56v7.428Z" transform="translate(47.721 -39.475)" fill="#050505"/>
          <path id="Path_66681" data-name="Path 66681" d="M175.176,53.608l2.254.282a5.712,5.712,0,0,1-1.9,3.663,5.507,5.507,0,0,1-3.765,1.332,5.891,5.891,0,0,1-4.482-1.819,7.454,7.454,0,0,1-1.691-5.123,9.476,9.476,0,0,1,.717-3.868,5.123,5.123,0,0,1,2.228-2.561,6.736,6.736,0,0,1,3.253-.82,5.482,5.482,0,0,1,3.612,1.127A5.123,5.123,0,0,1,177.225,49l-2.254.333a3.714,3.714,0,0,0-1.127-2.049,2.945,2.945,0,0,0-1.972-.692,3.509,3.509,0,0,0-2.818,1.255,5.814,5.814,0,0,0-1.1,3.945,6.276,6.276,0,0,0,1.05,4,3.458,3.458,0,0,0,2.741,1.229,3.33,3.33,0,0,0,2.28-.82A4.073,4.073,0,0,0,175.176,53.608Z" transform="translate(56.193 -39.461)" fill="#050505"/>
          <path id="Path_66682" data-name="Path 66682" d="M180.781,54.195l2.382.307a5.788,5.788,0,0,1-2.075,3.227,6.327,6.327,0,0,1-3.893,1.153,6.2,6.2,0,0,1-4.739-1.844,7.1,7.1,0,0,1-1.767-5.123,7.4,7.4,0,0,1,1.793-5.328,5.993,5.993,0,0,1,4.585-1.9,5.84,5.84,0,0,1,4.457,1.844,7.454,7.454,0,0,1,1.716,5.251V52.4H172.995a5.123,5.123,0,0,0,1.255,3.432,3.791,3.791,0,0,0,2.843,1.178,3.484,3.484,0,0,0,2.177-.666A4.3,4.3,0,0,0,180.781,54.195ZM173.1,50.481h7.684a4.534,4.534,0,0,0-.871-2.561,3.483,3.483,0,0,0-2.843-1.332,3.766,3.766,0,0,0-2.689,1.05,4.252,4.252,0,0,0-1.153,2.971Z" transform="translate(64.137 -39.459)" fill="#050505"/>
        </g>
        <g id="Group_59387" data-name="Group 59387" transform="translate(0 30.792)">
          <path id="Path_66683" data-name="Path 66683" d="M79,73.634v-18.8h7.044a8.657,8.657,0,0,1,3.458.589,4.252,4.252,0,0,1,2.049,1.742,4.662,4.662,0,0,1,.717,2.561,4.329,4.329,0,0,1-.64,2.28,4.841,4.841,0,0,1-1.972,1.716,4.969,4.969,0,0,1,2.561,1.69,4.559,4.559,0,0,1,.9,2.664,5.251,5.251,0,0,1-.563,2.561,4.355,4.355,0,0,1-1.383,1.742,6.072,6.072,0,0,1-2.049.948,12.626,12.626,0,0,1-3.022.307Zm2.561-10.886h4.073a8.375,8.375,0,0,0,2.356-.231,2.457,2.457,0,0,0,1.921-2.587,3,3,0,0,0-.461-1.639,2.254,2.254,0,0,0-1.281-.973,10.244,10.244,0,0,0-2.843-.256H81.408Zm0,8.657h4.687a12.813,12.813,0,0,0,1.691,0,4.3,4.3,0,0,0,1.434-.512,2.919,2.919,0,0,0,.948-1.05,3.15,3.15,0,0,0,.2-1.767,3.1,3.1,0,0,0-.538-1.819,2.971,2.971,0,0,0-1.486-1.1,9.376,9.376,0,0,0-2.741-.307H81.408Z" transform="translate(-79 -54.419)" fill="#050505"/>
          <path id="Path_66684" data-name="Path 66684" d="M95.531,66.27l2.382.282a5.814,5.814,0,0,1-2.1,3.253,7.069,7.069,0,0,1-8.632-.692,7.249,7.249,0,0,1-1.742-5.123,7.479,7.479,0,0,1,1.767-5.328,5.968,5.968,0,0,1,4.585-1.921,5.866,5.866,0,0,1,4.457,1.87,7.351,7.351,0,0,1,1.742,5.123,5.834,5.834,0,0,1,0,.615H87.745a5.122,5.122,0,0,0,1.281,3.432,3.74,3.74,0,0,0,2.843,1.2,3.535,3.535,0,0,0,2.152-.666,4.457,4.457,0,0,0,1.511-2.049Zm-7.684-3.74h7.684a4.457,4.457,0,0,0-.948-2.561,3.535,3.535,0,0,0-2.869-1.332,3.611,3.611,0,0,0-2.561,1.05,4.278,4.278,0,0,0-1.2,2.843Z" transform="translate(-68.97 -51.435)" fill="#050505"/>
          <path id="Path_66685" data-name="Path 66685" d="M97.257,71.29l.333,2.049a9.35,9.35,0,0,1-1.742.2,3.739,3.739,0,0,1-1.947-.41,2.2,2.2,0,0,1-.973-1.025,7.938,7.938,0,0,1-.282-2.741V61.685H90.93V59.867h1.716V56.383L94.926,55v4.739h2.331v1.819H94.926V69.5a4.226,4.226,0,0,0,.128,1.281.9.9,0,0,0,.384.435,1.46,1.46,0,0,0,.794.179,5.92,5.92,0,0,0,1.024-.1Z" transform="translate(-60.373 -54.15)" fill="#050505"/>
          <path id="Path_66686" data-name="Path 66686" d="M100.081,71.29l.333,2.049a9.118,9.118,0,0,1-1.742.2,3.791,3.791,0,0,1-1.947-.41,2.331,2.331,0,0,1-.973-1.025,8.656,8.656,0,0,1-.282-2.741V61.685H93.78V59.867h1.691V56.383L97.776,55v4.739h2.305v1.819H97.776V69.5a3.509,3.509,0,0,0,0,1.281.9.9,0,0,0,.384.435,1.409,1.409,0,0,0,.794.179,5.457,5.457,0,0,0,1.127-.1Z" transform="translate(-55.923 -54.15)" fill="#050505"/>
          <path id="Path_66687" data-name="Path 66687" d="M106.921,66.27l2.382.282a5.763,5.763,0,0,1-2.075,3.253,6.327,6.327,0,0,1-3.893,1.153A6.2,6.2,0,0,1,98.6,69.113a7.147,7.147,0,0,1-1.767-5.123A7.479,7.479,0,0,1,98.6,58.663a6.019,6.019,0,0,1,4.61-1.921,5.866,5.866,0,0,1,4.457,1.87,7.351,7.351,0,0,1,1.716,5.123v.615H99.135a5.123,5.123,0,0,0,1.255,3.432,3.816,3.816,0,0,0,2.843,1.2,3.663,3.663,0,0,0,2.177-.666,4.431,4.431,0,0,0,1.511-2.049Zm-7.684-3.74h7.684a4.457,4.457,0,0,0-.871-2.561,3.484,3.484,0,0,0-2.843-1.332,3.637,3.637,0,0,0-2.561,1.05,4.252,4.252,0,0,0-1.281,2.843Z" transform="translate(-51.186 -51.436)" fill="#050505"/>
          <path id="Path_66688" data-name="Path 66688" d="M102.81,70.664V57.037h2.075v2.075a5.559,5.559,0,0,1,1.486-1.921,2.561,2.561,0,0,1,1.486-.461,4.533,4.533,0,0,1,2.356.743l-.794,2.152a3.279,3.279,0,0,0-1.691-.487,2.151,2.151,0,0,0-1.358.435,2.561,2.561,0,0,0-.871,1.281,8.989,8.989,0,0,0-.384,2.561v7.121Z" transform="translate(-41.824 -51.449)" fill="#050505"/>
          <path id="Path_66689" data-name="Path 66689" d="M122.989,67.3l2.561.615a8.35,8.35,0,0,1-2.817,4.687,7.684,7.684,0,0,1-4.943,1.588,8.939,8.939,0,0,1-4.943-1.229,7.505,7.505,0,0,1-2.894-3.586,12.627,12.627,0,0,1-1-5.123,10.783,10.783,0,0,1,1.127-5.123,7.684,7.684,0,0,1,3.176-3.33,9.477,9.477,0,0,1,4.559-1.127,7.684,7.684,0,0,1,4.739,1.434,7.5,7.5,0,0,1,2.561,4.021l-2.561.589a5.84,5.84,0,0,0-1.9-3,5.122,5.122,0,0,0-3.125-.922,6.071,6.071,0,0,0-3.612,1.025,5.481,5.481,0,0,0-2.049,2.792,12.167,12.167,0,0,0,0,7.684,5.123,5.123,0,0,0,2.177,2.561,6.071,6.071,0,0,0,3.2.871,5.277,5.277,0,0,0,3.535-1.2,6.2,6.2,0,0,0,2.2-3.227Z" transform="translate(-32.24 -54.668)" fill="#050505"/>
          <path id="Path_66690" data-name="Path 66690" d="M116.49,57.431V54.87H118.8v2.561Zm0,16.137V59.942H118.8V73.568Z" transform="translate(-20.464 -54.353)" fill="#050505"/>
          <path id="Path_66691" data-name="Path 66691" d="M124.571,71.29l.333,2.049a9.351,9.351,0,0,1-1.742.2,3.739,3.739,0,0,1-1.947-.41,2.2,2.2,0,0,1-.973-1.025,7.94,7.94,0,0,1-.282-2.741V61.685h-1.69V59.867h1.69V56.383L122.24,55v4.739h2.331v1.819H122.24V69.5a4.228,4.228,0,0,0,.128,1.281.9.9,0,0,0,.384.435,1.46,1.46,0,0,0,.794.179A5.919,5.919,0,0,0,124.571,71.29Z" transform="translate(-17.685 -54.15)" fill="#050505"/>
          <path id="Path_66692" data-name="Path 66692" d="M121.61,57.431V54.87h2.305v2.561Zm0,16.137V59.942h2.305V73.568Z" transform="translate(-12.47 -54.353)" fill="#050505"/>
          <path id="Path_66693" data-name="Path 66693" d="M123.41,70.523v-1.87l8.657-9.938h-8.12v-1.9h11.219v1.537l-7.351,8.632-1.434,1.588h9.2v2Z" transform="translate(-9.659 -51.309)" fill="#050505"/>
          <path id="Path_66694" data-name="Path 66694" d="M138.811,66.27l2.382.282a5.814,5.814,0,0,1-2.1,3.253,7.069,7.069,0,0,1-8.632-.692,7.249,7.249,0,0,1-1.742-5.123,7.479,7.479,0,0,1,1.767-5.328,5.968,5.968,0,0,1,4.585-1.921,5.866,5.866,0,0,1,4.457,1.87,7.351,7.351,0,0,1,1.742,5.123,5.843,5.843,0,0,1,0,.615H131.025a5.123,5.123,0,0,0,1.255,3.432,3.817,3.817,0,0,0,2.869,1.2,3.535,3.535,0,0,0,2.152-.666,4.636,4.636,0,0,0,1.511-2.049Zm-7.684-3.74h7.684a4.637,4.637,0,0,0-.871-2.561,3.535,3.535,0,0,0-2.869-1.332,3.612,3.612,0,0,0-2.561,1.05,4.278,4.278,0,0,0-1.281,2.843Z" transform="translate(-1.394 -51.435)" fill="#050505"/>
          <path id="Path_66695" data-name="Path 66695" d="M134.71,70.666V57.04h2.075v1.947a4.918,4.918,0,0,1,4.329-2.254,5.455,5.455,0,0,1,2.254.461,3.536,3.536,0,0,1,1.563,1.153,4.947,4.947,0,0,1,.768,1.639,13.767,13.767,0,0,1,.128,2.228v8.376h-2.305v-8.2a6.324,6.324,0,0,0-.282-2.126,2.177,2.177,0,0,0-.948-1.1,3.022,3.022,0,0,0-1.614-.41,3.714,3.714,0,0,0-2.561.922,4.611,4.611,0,0,0-1.076,3.56v7.428Z" transform="translate(7.984 -51.451)" fill="#050505"/>
          <path id="Path_66696" data-name="Path 66696" d="M143,67.711l2.331-.2a5.456,5.456,0,0,0,.794,2.331,4.355,4.355,0,0,0,1.9,1.46,7.25,7.25,0,0,0,2.869.538,6.89,6.89,0,0,0,2.561-.41,3.509,3.509,0,0,0,1.639-1.153,2.92,2.92,0,0,0,.512-1.614,2.562,2.562,0,0,0-.512-1.562A3.791,3.791,0,0,0,153.4,66c-.487-.2-1.614-.487-3.33-.922a17.415,17.415,0,0,1-3.637-1.153,5.122,5.122,0,0,1-2-1.767,4.277,4.277,0,0,1-.666-2.331,4.763,4.763,0,0,1,.794-2.561,5.122,5.122,0,0,1,2.382-1.87,8.709,8.709,0,0,1,3.432-.64,9.759,9.759,0,0,1,3.688.666,5.43,5.43,0,0,1,2.561,1.972,5.891,5.891,0,0,1,.922,2.971l-2.382.179a3.867,3.867,0,0,0-1.306-2.561A6.525,6.525,0,0,0,147.3,57.9a2.561,2.561,0,0,0-1.05,1.972A2.2,2.2,0,0,0,147,61.564a9.989,9.989,0,0,0,3.74,1.332,24.157,24.157,0,0,1,4.175,1.2,5.585,5.585,0,0,1,2.408,1.9,4.61,4.61,0,0,1,.794,2.689,4.943,4.943,0,0,1-.871,2.818,5.635,5.635,0,0,1-2.561,2.075,8.659,8.659,0,0,1-3.612.717,10.5,10.5,0,0,1-4.226-.973,5.967,5.967,0,0,1-2.715-2.228A6.4,6.4,0,0,1,143,67.711Z" transform="translate(20.928 -54.541)" fill="#050505"/>
          <path id="Path_66697" data-name="Path 66697" d="M159.891,66.27l2.382.282a5.815,5.815,0,0,1-2.1,3.253,7.069,7.069,0,0,1-8.632-.692,7.248,7.248,0,0,1-1.742-5.123,7.479,7.479,0,0,1,1.767-5.328,5.968,5.968,0,0,1,4.585-1.921,5.865,5.865,0,0,1,4.457,1.87,7.351,7.351,0,0,1,1.742,5.123,5.834,5.834,0,0,1,0,.615H152.1a5.123,5.123,0,0,0,1.281,3.432,3.74,3.74,0,0,0,2.843,1.2,3.534,3.534,0,0,0,2.151-.666A4.456,4.456,0,0,0,159.891,66.27Zm-7.684-3.74h7.684a4.638,4.638,0,0,0-.871-2.561,3.535,3.535,0,0,0-2.869-1.332,3.612,3.612,0,0,0-2.561,1.05,4.278,4.278,0,0,0-1.281,2.843Z" transform="translate(31.52 -51.435)" fill="#050505"/>
          <path id="Path_66698" data-name="Path 66698" d="M155.78,70.664V57.037h2.075v2.075a5.891,5.891,0,0,1,1.46-1.921,2.561,2.561,0,0,1,1.486-.461,4.687,4.687,0,0,1,2.382.743l-.794,2.152a3.3,3.3,0,0,0-1.716-.487,2.2,2.2,0,0,0-1.357.435,2.561,2.561,0,0,0-.845,1.281,8.989,8.989,0,0,0-.384,2.561v7.121Z" transform="translate(40.882 -51.449)" fill="#050505"/>
          <path id="Path_66699" data-name="Path 66699" d="M163.8,70.523,158.68,56.9h2.561l2.741,8.068c.307.871.589,1.793.871,2.741.2-.717.487-1.588.845-2.561l3.022-8.324H171.1L165.98,70.447Z" transform="translate(45.41 -51.309)" fill="#050505"/>
          <path id="Path_66700" data-name="Path 66700" d="M164.33,57.431V54.87h2.305v2.561Zm0,16.137V59.942h2.305V73.568Z" transform="translate(54.232 -54.353)" fill="#050505"/>
          <path id="Path_66701" data-name="Path 66701" d="M175.915,65.641l2.254.307a5.711,5.711,0,0,1-1.9,3.663,5.507,5.507,0,0,1-3.765,1.332,5.891,5.891,0,0,1-4.482-1.819A7.479,7.479,0,0,1,166.336,64a9.424,9.424,0,0,1,.717-3.842,5.123,5.123,0,0,1,2.228-2.561,6.48,6.48,0,0,1,3.253-.845,5.584,5.584,0,0,1,3.612,1.127,5.123,5.123,0,0,1,1.819,3.2l-2.254.333a3.611,3.611,0,0,0-1.127-2.049,2.946,2.946,0,0,0-1.972-.692,3.586,3.586,0,0,0-2.818,1.229,5.891,5.891,0,0,0-1.1,3.97,6.147,6.147,0,0,0,1.05,3.97,3.407,3.407,0,0,0,2.741,1.255,3.228,3.228,0,0,0,2.28-.845A4,4,0,0,0,175.915,65.641Z" transform="translate(57.349 -51.421)" fill="#050505"/>
          <path id="Path_66702" data-name="Path 66702" d="M181.506,66.271l2.382.282a5.635,5.635,0,0,1-2.075,3.253,6.326,6.326,0,0,1-3.893,1.153,6.2,6.2,0,0,1-4.739-1.844,7.12,7.12,0,0,1-1.742-5.123,7.48,7.48,0,0,1,1.767-5.328,6.339,6.339,0,0,1,9.042-.051,7.351,7.351,0,0,1,1.716,5.123v.615H173.719a5.122,5.122,0,0,0,1.255,3.432,3.816,3.816,0,0,0,2.843,1.2,3.663,3.663,0,0,0,2.177-.666,4.431,4.431,0,0,0,1.511-2.049Zm-7.684-3.74h7.684a4.456,4.456,0,0,0-.871-2.561,3.484,3.484,0,0,0-2.843-1.332,3.663,3.663,0,0,0-2.561,1.05,4.253,4.253,0,0,0-1.281,2.843Z" transform="translate(65.308 -51.436)" fill="#050505"/>
          <path id="Path_66703" data-name="Path 66703" d="M177.06,66.655l2.305-.359a3.125,3.125,0,0,0,1.05,2.1,4.533,4.533,0,0,0,4.815,0A1.972,1.972,0,0,0,186,66.86a1.434,1.434,0,0,0-.666-1.229,10.094,10.094,0,0,0-2.356-.768,20.62,20.62,0,0,1-3.535-1.127,3.432,3.432,0,0,1-1.562-4.79,3.918,3.918,0,0,1,1.127-1.306,4.866,4.866,0,0,1,1.46-.666,7.094,7.094,0,0,1,2-.282,7.914,7.914,0,0,1,2.818.461,4.021,4.021,0,0,1,1.793,1.255,5.12,5.12,0,0,1,.794,2.126l-2.254.307a2.561,2.561,0,0,0-.9-1.639,3.125,3.125,0,0,0-2.075-.589,3.74,3.74,0,0,0-2.28.512,1.512,1.512,0,0,0-.666,1.229,1.23,1.23,0,0,0,.282.82,2.178,2.178,0,0,0,.871.615l2.049.589a35.159,35.159,0,0,1,3.407,1.05,3.432,3.432,0,0,1,1.511,1.229,3.2,3.2,0,0,1,.563,1.972,3.841,3.841,0,0,1-.691,2.177,4.2,4.2,0,0,1-1.921,1.562,6.917,6.917,0,0,1-2.869.564,6.352,6.352,0,0,1-4.047-1.1A5.122,5.122,0,0,1,177.06,66.655Z" transform="translate(74.108 -51.512)" fill="#050505"/>
        </g>
      </g>
      <path id="separator" d="M359.136,38.721H81.15V36.16H359.136Z" transform="translate(126.6 56.161)" fill="#b6b6b6"/>
      <g id="e-mitra" transform="translate(189.641 9.126)">
        <g id="Group_59388" data-name="Group 59388" transform="translate(0 0)">
          <path id="Path_66704" data-name="Path 66704" d="M74.08,41.444a14.933,14.933,0,0,1,1.793-2.561,21.567,21.567,0,0,1,2.792-2.561,13.629,13.629,0,0,1,.359-2.28,22.658,22.658,0,0,0,.231-2.305,19.367,19.367,0,0,1,.538-1.921l.845-2.382c.359-.845.82-1.921,1.434-3.176a42.209,42.209,0,0,1,2.356-4.3c.794-.9,1.665-1.87,2.561-2.946l2.561-3.2a9.582,9.582,0,0,1,1.486-.82,17.92,17.92,0,0,0,1.511-1.05,15.171,15.171,0,0,1,1.562-.41,11.219,11.219,0,0,1,1.921-.154,7.684,7.684,0,0,1,2.356.282,3.048,3.048,0,0,1,1.46,1,4.815,4.815,0,0,1,.794,1.383,18.175,18.175,0,0,1,.717,2.254,17.043,17.043,0,0,0,.41,2.561c0-.231,0-.128-.2.282a14.733,14.733,0,0,0-.589,2.049l-.538,1.844a20.234,20.234,0,0,1-3.663,6.455,82.6,82.6,0,0,1-7.684,8.35,4.481,4.481,0,0,0-.692,1.025,2.869,2.869,0,0,0-.282,1.306,4.815,4.815,0,0,0,.435,2.152A2.945,2.945,0,0,0,89.781,43.7a5.813,5.813,0,0,0,1.486.692,18.983,18.983,0,0,0,2.408.64,17.93,17.93,0,0,0,4.124-.743,17.085,17.085,0,0,0,3.3-1.409l.948-.487a5.994,5.994,0,0,0,1.255-.845l1.306,2.92c.384.9.692,1.665.922,2.331a34.839,34.839,0,0,1-6.045,4.892,9.682,9.682,0,0,1-4.943,1.665,7.1,7.1,0,0,1-2.126.845,14.907,14.907,0,0,1-2.818.256,10.246,10.246,0,0,1-3.816-.64,6.967,6.967,0,0,1-2.741-1.87,7.686,7.686,0,0,1-1.178-1.69c-.384-.768-.794-1.665-1.2-2.715a9.524,9.524,0,0,0-1-1.9,1.306,1.306,0,0,0-1.025-.589,1.665,1.665,0,0,0-1.05.435A6.889,6.889,0,0,0,76.308,46.8a14.088,14.088,0,0,0-.82-2.152A25.222,25.222,0,0,0,74.08,41.444ZM92.65,22.592c-.845,0-1.972,1.1-3.407,3.33a11.039,11.039,0,0,0-2.152,4.995.692.692,0,0,0,.154.512.948.948,0,0,0,.589.128,1.153,1.153,0,0,0,1.05-.666l.768-1.229,1.229-1.255,1.2-1.306a6.1,6.1,0,0,0,1.05-1.639,4.047,4.047,0,0,0,.333-1.614,1.383,1.383,0,0,0-.2-.845A.666.666,0,0,0,92.65,22.592Z" transform="translate(-74.08 8.585)" fill="#c75e02"/>
          <path id="Path_66705" data-name="Path 66705" d="M92.276,19.21a21.9,21.9,0,0,1,2.741.871l4-.743h10.809a2.766,2.766,0,0,1,2.254.82,3.689,3.689,0,0,1,.692,2.561,5.379,5.379,0,0,1-.948,3.483,3.407,3.407,0,0,1-2.766,1.153,12.446,12.446,0,0,1-1.793-.179,16.084,16.084,0,0,0-1.793-.154h-3.33l-4.175.743c-3.355-.538-5.123-.82-5.635-.82a14.551,14.551,0,0,0-2,.2,13.83,13.83,0,0,1-2,.2,3.074,3.074,0,0,1-1.691-.435A1.434,1.434,0,0,1,86,25.665a1.921,1.921,0,0,1,.589-1A17.494,17.494,0,0,1,88.28,23l.615-1.178c.231-.487.538-1.05.9-1.716l1-.256Z" transform="translate(-55.469 20.829)" fill="#c75e02"/>
          <path id="Path_66706" data-name="Path 66706" d="M97.15,37.4a9.551,9.551,0,0,0,.82-1.076l1.05-1.486c1.716-2.126,3.355-4.021,4.969-5.712s3.125-3.176,4.559-4.482c.743-.717,1.639-1.614,2.689-2.715s2.254-2.356,3.663-3.791c1.383-.538,2.92-1.178,4.585-1.87A2.561,2.561,0,0,1,121.79,17.3a4.712,4.712,0,0,1,.768,2.92,24.612,24.612,0,0,1-.256,3.509,35.421,35.421,0,0,1-.743,3.868c-.333,1.05-.64,2.049-.871,3.022a.973.973,0,0,0,.179.615.768.768,0,0,0,.589.2,17.929,17.929,0,0,0,3.483-2.92c1.665-1.665,3.868-3.97,6.557-6.967a43.239,43.239,0,0,1,6.1-5.712,8.043,8.043,0,0,1,4.2-1.87,2.741,2.741,0,0,1,2.561,1.229,7.2,7.2,0,0,1,.768,3.688,42.019,42.019,0,0,1-.512,6.813,27.382,27.382,0,0,1-1.793,6.3,6,6,0,0,0-.307,1v.743c0,.231.23.538.692.768a12.622,12.622,0,0,0,1.076-1.153c.41-.512.9-1.153,1.434-1.921l2.561-2.2c.9-.743,1.844-1.511,2.894-2.28a13.778,13.778,0,0,1,3.3-1.947,9.169,9.169,0,0,1,3.3-.666,1.306,1.306,0,0,1,.589.179l.589.41a30.051,30.051,0,0,1,2.2,2.126,8.4,8.4,0,0,1,1.2,1.639,42.543,42.543,0,0,0,4.021,6.941c1.178,1.537,2.228,2.305,3.125,2.305a1.178,1.178,0,0,0,.564-.154,3.842,3.842,0,0,0,.589-.384c.9,1.9,1.639,3.688,2.254,5.353a24.207,24.207,0,0,1-3.714,2.561,6.3,6.3,0,0,1-2.843.845c-2.561,0-5.4-1.742-8.248-5.123s-5.123-5.123-6.531-5.123c-2.024,0-5.353,2.971-10.041,8.914s-7.684,8.914-8.76,8.914a18.264,18.264,0,0,1-2.331-.179,1.2,1.2,0,0,1-.692-.717,3.409,3.409,0,0,1-.231-1.306,10.376,10.376,0,0,1,.359-2.305c.23-.948.538-2.049.922-3.33s.9-2.92,1.229-3.893a13.291,13.291,0,0,0,.512-2.023c0-.512.282-1.486.487-2.971s.487-3.407.845-5.866a1.229,1.229,0,0,0-.359-.973,1.1,1.1,0,0,0-.794-.359,2.074,2.074,0,0,0-.9.256,6.452,6.452,0,0,0-1.153.845,17.193,17.193,0,0,1-1.537,1.511q-.845.768-2.561,2.152l-4.149,4.739c-1.409,1.614-2.869,3.227-4.329,4.841-2.331,2.715-4.175,4.713-5.533,6.019s-2.254,1.947-2.561,1.947a7.07,7.07,0,0,1-2.561-.41,1.332,1.332,0,0,1-.9-1.229,32.788,32.788,0,0,1,2.075-7.991,31.942,31.942,0,0,0,2.049-8.555.9.9,0,0,0-.256-.666.871.871,0,0,0-.666-.256,2.9,2.9,0,0,0-1.665.768,14.162,14.162,0,0,0-2.177,2.561c-.538.615-1.2,1.332-1.972,2.152l-2.869,2.843a3.737,3.737,0,0,1-.461.9l-.64.845a14.086,14.086,0,0,0-.82-2.152A25.789,25.789,0,0,1,97.15,37.4Z" transform="translate(-38.059 12.624)" fill="#c75e02"/>
          <path id="Path_66707" data-name="Path 66707" d="M125.76,51.033l.333-.41.179-.563a39.8,39.8,0,0,1,5.507-5.609,35.011,35.011,0,0,0,5.456-5.609,3.894,3.894,0,0,1,1.332-1.332,3.433,3.433,0,0,1,1.511-.41,5.558,5.558,0,0,1,3.432,1.025,4.969,4.969,0,0,1,1.87,3.048c.256,1.2.512,2.408.743,3.637s.435,2.433.589,3.663c.256.794.589,1.947.973,3.535a10.883,10.883,0,0,0,.871,2.689,1.844,1.844,0,0,0,.871.845,3.458,3.458,0,0,0,1.46.256,6.583,6.583,0,0,0,2.152-.384,7.684,7.684,0,0,0,2.254-1.306l1.844-1.537,1.87-1.537,2.331,5.353a26.621,26.621,0,0,1-2.561,2.1q-1.537,1.178-3.688,2.766a30.736,30.736,0,0,1-4.073,2.561,6.454,6.454,0,0,1-2.561.845,12.448,12.448,0,0,1-6.711-1.1,16.417,16.417,0,0,1-3.484-6.788,9,9,0,0,0-.692-1.1c-.307-.435-.666-.922-1.05-1.511a11.68,11.68,0,0,0-1.229-2c-.333-.461-.64-.666-.871-.666a4.533,4.533,0,0,0-2.561,1.255,33.3,33.3,0,0,0-3.842,3.74c-.179-.512-.435-1.1-.717-1.819s-.589-1.511-.9-2.433a2.947,2.947,0,0,0-.307-.64,1.665,1.665,0,0,0-.333-.563Zm24.256-45.8a3.253,3.253,0,0,1,2.126.589,2.125,2.125,0,0,1,.666,1.665c-.231,1.1-.435,2-.589,2.741-.384,1.383-.717,2.561-1.025,3.432s-.512,1.511-.666,1.9a6.992,6.992,0,0,1-1.409,2.254,10.578,10.578,0,0,1-2.177,1.716,14.243,14.243,0,0,1-2.228,1.306,3.355,3.355,0,0,1-1.255.307l-1.9-.2H139.8a2.714,2.714,0,0,1-1.178-1.588,8.706,8.706,0,0,1-.436-3.125,7.685,7.685,0,0,1,2.1-4.38,6.506,6.506,0,0,1,3.765-2.818c.64-.82,1.409-1.742,2.305-2.792a5.558,5.558,0,0,1,1.511-.666,7.684,7.684,0,0,1,2.152-.333Z" transform="translate(6.612 -1.004)" fill="#c75e02"/>
          <path id="Path_66708" data-name="Path 66708" d="M138.72,53.607l.23-.461.9-1.153,1.306-1.639A64.037,64.037,0,0,0,149.2,41.21a112.521,112.521,0,0,0,7.684-12.218A13.772,13.772,0,0,0,157.9,27.3a27.086,27.086,0,0,0,1.281-2.561.691.691,0,0,0-.179-.538.82.82,0,0,0-.564-.179,5.583,5.583,0,0,0-1.127.2,4.458,4.458,0,0,1-1.2.2H145.789l-1.076-.512-.973-.435a3.022,3.022,0,0,1-1.076-.589,1.332,1.332,0,0,1-.359-.922,16.469,16.469,0,0,1,.768-5.686,2.561,2.561,0,0,1,2.561-1.972,28.534,28.534,0,0,1,3.048.154,25.052,25.052,0,0,1,2.561.384l1.639-.359q1.28-.064,2.561,0a8.762,8.762,0,0,1,1.691.282l1.485-.307,1.588-.333,1.921.589c1.358-.154,2.792-2.049,4.329-5.686s3.176-5.456,4.918-5.456a2.69,2.69,0,0,1,2.152.871,3.791,3.791,0,0,1,.743,2.561,10.524,10.524,0,0,1-.794,3.509,16.647,16.647,0,0,0-.9,3.279,1.945,1.945,0,0,0,.333.512,6.053,6.053,0,0,0,.589.615,1.306,1.306,0,0,1,.487.768,5.119,5.119,0,0,1,0,1.358,35.627,35.627,0,0,1-.307,5.379c-.2,1.255-.538,1.9-1,1.947l-3.945.82a10.438,10.438,0,0,1-.282,1.409c-.1.564-.282,1.2-.487,1.947-.64,1.947-1.383,4.406-2.2,7.377s-1.716,6.506-2.741,10.553c-.615,3.253-1.1,5.891-1.409,7.915a31.352,31.352,0,0,0-.512,4.047,2.561,2.561,0,0,0,.307,1.409.948.948,0,0,0,.871.461,9.812,9.812,0,0,0,2.561-1.69q2.2-1.691,6.07-4.995l2.254,5.353a20.3,20.3,0,0,1-1.614,1.511A29.653,29.653,0,0,1,169,62.341c-.41.435-.871.9-1.46,1.434s-1.229,1.127-1.921,1.819l-2.049,2.331-2.075,2.254a9.914,9.914,0,0,1-2.715,2.177,5.84,5.84,0,0,1-2.561.666,4.559,4.559,0,0,1-3.791-1.511,6.993,6.993,0,0,1-1.255-4.585q0-3.355.23-5.84a16.752,16.752,0,0,1,.769-3.97,5.12,5.12,0,0,0,.333-.82,8.506,8.506,0,0,1,.179-1.562c.128-.64.256-1.434.41-2.305.23-1.511.487-3.022.743-4.534.435-.922.871-1.921,1.358-2.971,0-.179-.179-.359-.487-.512l-.564.333a19.544,19.544,0,0,1-2.28,2.946,40.033,40.033,0,0,1-3.3,3.227l-6.045,5.737a6.4,6.4,0,0,1-.64.871c-.307.384-.64.871-1.025,1.46-.2-.461-.435-1.05-.743-1.767a26.25,26.25,0,0,1-.9-2.561,4.855,4.855,0,0,0-.282-.64,2.386,2.386,0,0,0-.2-.41Z" transform="translate(26.847 -3.578)" fill="#c75e02"/>
          <path id="Path_66709" data-name="Path 66709" d="M151.28,37.4c.615-.82,1.229-1.665,1.844-2.561a51.489,51.489,0,0,0,6.941-6.685,25.949,25.949,0,0,0,3.919-6.019l-.615-2.792a11.579,11.579,0,0,1,3.74-3.407,9.529,9.529,0,0,1,4.867-1.972,5.123,5.123,0,0,1,3.33,1.153,28.948,28.948,0,0,1,2.561,2.433,9.911,9.911,0,0,1,.922.64A10.246,10.246,0,0,1,182.273,23a20.9,20.9,0,0,1,1.178,7.5,19.212,19.212,0,0,1-1.819,6.634,19.645,19.645,0,0,0-1.793,6.531.564.564,0,0,0,.2.461.794.794,0,0,0,.563.179,3.611,3.611,0,0,0,1.793-.666,14.629,14.629,0,0,0,2.254-1.844,29.973,29.973,0,0,1,3.714-3.33,7.81,7.81,0,0,0,1.562-1.076c.333.768.692,1.614,1.127,2.561s.82,1.819,1.2,2.843c-.333.307-.743.666-1.178,1.1s-.973.9-1.614,1.434c-1.306.973-3.022,2.152-5.123,3.535s-4.636,2.946-7.684,4.713a10.244,10.244,0,0,1-2.561,1.229,7.249,7.249,0,0,1-3.663-.743,2.561,2.561,0,0,1-1.229-2.331,5.122,5.122,0,0,1,.282-1.486,11.1,11.1,0,0,1,.717-1.819c.231-.512.487-1.025.743-1.562a12.57,12.57,0,0,0,.717-1.588A54.553,54.553,0,0,0,173.59,38.5a26.512,26.512,0,0,0,.692-5.635,9.272,9.272,0,0,0-.973-4.687,3.637,3.637,0,0,0-2.869-1.87,17.242,17.242,0,0,0-2.792,1.972,24.77,24.77,0,0,0-3.074,3.2,40.985,40.985,0,0,1-3.022,3.407,10.247,10.247,0,0,1-2.2,1.819,9.531,9.531,0,0,1-1.69,1.972,23.541,23.541,0,0,1-3.074,2.382l-.333.692a4.686,4.686,0,0,1-.768,1.05,25.644,25.644,0,0,0-1.05-2.561A16.121,16.121,0,0,0,151.28,37.4Z" transform="translate(46.458 12.632)" fill="#c75e02"/>
          <path id="Path_66710" data-name="Path 66710" d="M168.35,36.873l5.276-3.483a5.463,5.463,0,0,0,.692-.768,7.686,7.686,0,0,0,.922-1.434,4.686,4.686,0,0,1,1.076-1.281,11.084,11.084,0,0,1,1.537-.922c.333-.384.769-.871,1.358-1.434s1.306-1.255,2.2-2.049l1.614-1a17.288,17.288,0,0,0,2.152-1.793,62.9,62.9,0,0,1,9.272-7.479,13.267,13.267,0,0,1,6.685-2.561,3.278,3.278,0,0,1,2.254.64,2.3,2.3,0,0,1,.717,1.793,5.123,5.123,0,0,1-.435,2.152,3.945,3.945,0,0,1-1.358,1.562c-.973.692-2.023,1.46-3.15,2.331a26.92,26.92,0,0,1-2.254,2.561,26.2,26.2,0,0,1-3.253,2.792c-.384.487-.692.948-.973,1.332l-1.1,1.05c-.538.487-1.255,1.076-2.151,1.742a13.45,13.45,0,0,1-2.561,3.3c-1.281,1.358-3.022,2.971-5.123,4.867a17.128,17.128,0,0,0-1.46,1.87l-2.741,3.816.41.538a9.605,9.605,0,0,0,2.561-1.409,23.046,23.046,0,0,0,3.1-2.561l3.2-2.92a16.514,16.514,0,0,1,1.793-1.486l.794-.461.948-.589a24.284,24.284,0,0,1,4.969-4.713,8.017,8.017,0,0,1,4.3-1.537,2.1,2.1,0,0,1,1.87.948,6.044,6.044,0,0,1,.743,2.869v5.584a5.123,5.123,0,0,0,1,3.33,3.3,3.3,0,0,0,2.818,1.486,2.126,2.126,0,0,0,1.025-.282,8.19,8.19,0,0,0,1.025-.768l.768-1,.794-.922.666-.41a5.123,5.123,0,0,0,.845-.692c.538,1.178,1,2.177,1.358,3.048s.64,1.639.845,2.305a26.885,26.885,0,0,0-2.561,2.561,36.7,36.7,0,0,1-2.766,2.561,16.265,16.265,0,0,1-3.355,2,8.786,8.786,0,0,1-3.253.666,7.684,7.684,0,0,1-5.814-2.152,10.373,10.373,0,0,1-2.382-6.506,4.2,4.2,0,0,0-.154-1.076,2.817,2.817,0,0,0-.589-1.127l-.64.615a8.829,8.829,0,0,0-.82.845l-1.9,1.434-2.561,2.1c-1.358,1.383-2.561,2.561-3.432,3.432l-1.972,1.9a24.468,24.468,0,0,1-2.561,2c-1.024.64-2.177,1.332-3.458,2.024-.82.435-1.511.768-2.075,1.025a4.279,4.279,0,0,1-1.281.359,5.584,5.584,0,0,1-4.124-1.358,5.789,5.789,0,0,1-1.332-4.2,6.736,6.736,0,0,1,.666-3,9.657,9.657,0,0,1,2-2.766,7.837,7.837,0,0,0,0-1.2,1.333,1.333,0,0,0-.128-.615c0-.2-.231-.461-.384-.717s-.487-1.153-.794-1.844-.589-1.409-.948-2.177a6.123,6.123,0,0,0,.666-.9A15.5,15.5,0,0,1,168.35,36.873Z" transform="translate(69.96 10.595)" fill="#c75e02"/>
        </g>
      </g>
      <g id="TM" transform="translate(481.228 14.663)">
        <g id="Group_59389" data-name="Group 59389">
          <path id="Path_66711" data-name="Path 66711" d="M192.838,22.312V8.532H187.92V5.74h13.191V8.532h-4.918v13.78Z" transform="translate(-187.92 -5.74)" fill="#050505"/>
          <path id="Path_66712" data-name="Path 66712" d="M193.89,22.312V5.74h5.123l2.843,11.3,2.971-11.3h5.123V22.312h-3.1V9.249l-3.278,13.063h-3.227L197.066,9.249V22.312Z" transform="translate(-178.599 -5.74)" fill="#050505"/>
        </g>
      </g>
      <g id="registered_mark" data-name="registered mark" transform="translate(472.366 106.149)">
        <g id="Ellipse_533" data-name="Ellipse 533">
          <circle id="Ellipse_536" data-name="Ellipse 536" cx="18.519" cy="18.519" r="18.519" fill="none"/>
          <circle id="Ellipse_537" data-name="Ellipse 537" cx="17.75" cy="17.75" r="17.75" transform="translate(0.768 0.768)" fill="none" stroke="#050505" stroke-width="1"/>
        </g>
        <g id="R" transform="translate(12.756 10.081)">
          <g id="Group_59390" data-name="Group 59390" transform="translate(0 0)">
            <path id="Path_66713" data-name="Path 66713" d="M189.44,63.246v-17.7h7.838a10.04,10.04,0,0,1,3.586.487,3.894,3.894,0,0,1,1.972,1.665,5.124,5.124,0,0,1,.743,2.561,4.355,4.355,0,0,1-1.23,3.15,6.122,6.122,0,0,1-3.765,1.639,6.4,6.4,0,0,1,1.409.9,11.5,11.5,0,0,1,1.947,2.356l3.074,4.815h-2.946l-2.331-3.586c-.692-1.076-1.255-1.87-1.691-2.433a4.61,4.61,0,0,0-1.2-1.178,3.536,3.536,0,0,0-1.05-.487,8.015,8.015,0,0,0-1.306,0h-2.715V63.3Zm2.331-9.887h5.123a7.224,7.224,0,0,0,2.561-.333,2.561,2.561,0,0,0,1.383-1.076,2.844,2.844,0,0,0,.461-1.562,2.689,2.689,0,0,0-.9-2.075,4.252,4.252,0,0,0-2.869-.82h-5.609Z" transform="translate(-189.44 -45.536)"/>
          </g>
        </g>
      </g>
    </g>
  </g>
</svg>
