<?xml version="1.0" encoding="utf-8"?>
<svg xmlns="http://www.w3.org/2000/svg" xmlns:xlink="http://www.w3.org/1999/xlink" id="layer" x="0px" y="0px" viewBox="0 0 600.2 97.4" style="enable-background:new 0 0 600.2 97.4;" xml:space="preserve">
<style type="text/css">
	.st0{fill:#53A318;}
</style>
<path class="st0" d="M96.1,49.2c0,2.6-0.2,5.2-0.5,7.6s-0.8,4.8-1.5,7.1c-0.6,2.3-1.5,4.5-2.5,6.6s-2.2,4.2-3.5,6.1  c-2.3,3.2-4.9,6.1-7.8,8.7c-2.9,2.6-6.1,4.8-9.6,6.6c-3.5,1.8-7.1,3.2-10.9,4.1s-7.7,1.4-11.7,1.4c-3.4,0-6.8-0.3-10-0.9  c-3.2-0.6-6.2-1.5-9.2-2.8c-2.9-1.3-5.7-2.8-8.2-4.7c-2.6-1.8-5-4-7.4-6.5c-2.2-2.2-4.2-4.7-5.8-7.3c-1.6-2.6-3-5.4-4.2-8.3  c-1.1-2.9-2-6-2.5-9.1C0.3,54.6,0,51.3,0,47.7c0-3.2,0.3-6.3,0.9-9.4s1.5-6,2.7-8.9s2.7-5.6,4.5-8.2c1.8-2.7,3.9-5.1,6.2-7.3  c2.2-2.2,4.7-4.2,7.3-5.9c2.6-1.7,5.3-3.2,8.2-4.4c2.9-1.2,5.9-2.1,8.9-2.7C41.9,0.3,45.1,0,48.3,0c5,0,9.8,0.8,14.4,2.3  S71.6,6,75.5,8.7c3.9,2.8,7.4,6.2,10.5,10.2c3.1,4,5.6,8.5,7.4,13.6h-26c-1.5-1.6-2.9-2.9-4.5-4.1c-1.5-1.1-3-2-4.7-2.9  c-1.5-0.8-3.2-1.3-4.8-1.7c-1.7-0.3-3.5-0.5-5.2-0.5c-3.4,0-6.6,0.6-9.6,1.9c-2.9,1.2-5.6,3-7.8,5.2s-4,4.9-5.2,7.9  s-1.9,6.2-1.9,9.5c0,3.7,0.7,7.2,2,10.4c1.3,3.2,3.1,6,5.4,8.4c2.3,2.4,4.9,4.2,7.8,5.5s6,2,9.3,2c2.1,0,4.2-0.3,6.2-0.8  s4-1.3,5.8-2.4c1.9-1.1,3.6-2.4,5-4c1.5-1.6,2.8-3.4,3.9-5.5H42.5V42.8h53.4c0,0.5,0,1.1,0.1,1.6c0.1,0.5,0.1,1.1,0.1,1.6  C96.1,46,96.1,49.2,96.1,49.2z M102.1,95.7V2.1h31.1c2.4,0,4.7,0,6.9,0.1s4.3,0.3,6.2,0.7c1.9,0.4,3.8,0.9,5.5,1.6  c1.8,0.7,3.5,1.6,5,2.8c1.9,1.4,3.7,3,5.3,4.8s2.9,3.8,4,6c1.1,2.3,1.9,4.7,2.5,7.1c0.6,2.5,0.9,5.2,0.9,8.1c0,3.8-0.5,7.4-1.5,10.6  s-2.4,6.2-4.3,8.8c-1.8,2.6-4.1,4.9-6.6,6.7c-2.6,1.8-5.6,3.2-9,4.2l23,32.1h-28.3l-18-30.1v30.1L102.1,95.7L102.1,95.7z   M129.4,45.2c2.9,0,5.4-0.2,7.5-0.6s3.9-1,5.2-1.9c1.4-0.9,2.4-2,3.1-3.5s1-3.2,1-5.3c0-2-0.3-3.7-0.9-5c-0.6-1.4-1.5-2.5-2.8-3.4  s-2.8-1.5-4.6-1.9s-4.1-0.6-6.7-0.6h-6.3v22.2L129.4,45.2L129.4,45.2z M187.2,13.9c2.3-2.2,4.8-4.2,7.4-5.9c2.6-1.7,5.3-3.1,8.2-4.3  c2.9-1.1,5.9-2,9-2.6c3.2-0.6,6.4-0.9,9.6-0.9c3.2,0,6.3,0.3,9.3,0.9s6,1.5,8.8,2.7s5.6,2.6,8.1,4.4c2.6,1.7,5,3.7,7.2,5.9  c2.3,2.3,4.4,4.8,6.3,7.5c1.8,2.6,3.3,5.4,4.6,8.3c1.2,2.9,2.1,5.9,2.7,8.9s0.9,6.1,0.9,9.3c0,3.4-0.3,6.7-0.8,9.9  c-0.5,3.1-1.4,6.2-2.6,9.1s-2.6,5.7-4.3,8.3c-1.7,2.7-3.6,5.1-5.8,7.3c-2.2,2.4-4.7,4.5-7.4,6.3c-2.6,1.8-5.5,3.3-8.4,4.6  c-2.9,1.2-6,2.1-9.1,2.8c-3.2,0.7-6.4,1-9.7,1c-3.4,0-6.8-0.3-10-1c-3.1-0.6-6.2-1.6-9.2-2.8c-2.9-1.2-5.7-2.7-8.3-4.6  c-2.6-1.8-5.1-4-7.3-6.5c-2.2-2.2-4.2-4.7-5.8-7.3c-1.6-2.6-3-5.4-4.2-8.3c-1.1-2.9-2-6-2.5-9.1c-0.5-3.2-0.8-6.5-0.8-10.1  c0-3.2,0.3-6.3,0.9-9.4c0.6-3.1,1.5-6,2.7-8.9s2.7-5.6,4.5-8.2C182.9,18.6,184.9,16.2,187.2,13.9L187.2,13.9z M221.2,74.3  c3.4,0,6.6-0.7,9.6-2s5.5-3.1,7.7-5.4s3.9-5,5.2-8.2c1.3-3.2,2-6.7,2-10.5c0-3.4-0.7-6.7-2-9.7s-3.1-5.6-5.2-7.8  c-2.2-2.2-4.7-3.9-7.6-5.2c-2.9-1.3-6-2-9.3-2c-3.6,0-6.9,0.7-9.9,2s-5.7,3.1-7.9,5.2c-2.2,2.2-4,4.8-5.2,7.8  c-1.3,3-1.9,6.3-1.9,9.7c0,3.7,0.7,7.1,2,10.3c1.3,3.2,3.1,5.9,5.4,8.2c2.3,2.3,5,4.2,7.9,5.5C215,73.6,218,74.3,221.2,74.3  L221.2,74.3z M298.4,2.1v57.6c0,2.6,0.2,5,0.6,7s1.1,3.7,2,5s2.1,2.3,3.5,3s3.1,1,5,1c2,0,3.7-0.3,5.2-1c1.5-0.6,2.8-1.7,3.8-3  s1.7-3,2.2-4.9c0.5-2,0.7-4.4,0.7-7.1V2.1h23v58.6c0,5.7-0.9,10.8-2.6,15.3c-1.7,4.6-4.1,8.4-7.1,11.5s-6.7,5.5-11,7.2  s-9.1,2.6-14.3,2.6c-5.3,0-10-0.8-14.2-2.5s-7.8-4-10.7-7.1c-2.9-3.1-5.1-6.9-6.7-11.4s-2.4-9.7-2.4-15.6V2.1H298.4L298.4,2.1z   M350.8,95.7V2.1h31.1c2.5,0,4.8,0,7,0.1c2.1,0.1,4.2,0.3,6.2,0.7c2,0.4,3.8,0.9,5.5,1.6s3.4,1.6,4.9,2.8c2.1,1.5,4,3.1,5.5,4.8  c1.6,1.8,2.9,3.8,4,6s1.8,4.7,2.4,7.2c0.5,2.6,0.8,5.3,0.8,8.2c0,3-0.3,5.9-1,8.6c-0.6,2.6-1.6,5.2-2.9,7.6s-2.8,4.6-4.7,6.5  c-1.8,2-4,3.6-6.3,4.9c-1.5,0.9-3.1,1.7-4.8,2.2c-1.8,0.5-3.6,1-5.4,1.3c-1.9,0.3-3.9,0.6-6,0.7s-4.4,0.2-6.9,0.2h-6.5v30.1  L350.8,95.7L350.8,95.7z M378.3,45.2c2.8,0,5.2-0.2,7.3-0.6c2.1-0.4,3.9-1,5.2-1.9c1.4-0.8,2.5-2,3.2-3.5s1.1-3.2,1.1-5.3  c0-2-0.3-3.7-0.9-5c-0.6-1.4-1.5-2.5-2.8-3.4s-2.8-1.5-4.8-1.9c-1.9-0.4-4.1-0.6-6.6-0.6h-6.1v22.2L378.3,45.2L378.3,45.2z   M435.5,13.9c2.3-2.2,4.8-4.2,7.4-5.9c2.6-1.7,5.3-3.1,8.2-4.3c2.9-1.1,5.9-2,9-2.6c3.2-0.6,6.4-0.9,9.6-0.9s6.2,0.3,9.2,0.9  s5.9,1.5,8.7,2.7c2.9,1.2,5.6,2.7,8.2,4.4c2.6,1.7,5.1,3.7,7.3,5.9c2.3,2.3,4.4,4.8,6.2,7.5c1.8,2.6,3.3,5.4,4.6,8.3  c1.2,2.9,2.2,5.8,2.8,8.9c0.6,3,0.9,6.1,0.9,9.3c0,3.4-0.3,6.7-0.9,9.9c-0.6,3.1-1.4,6.2-2.6,9.1c-1.1,2.9-2.6,5.7-4.3,8.3  c-1.7,2.6-3.6,5.1-5.7,7.3c-2.3,2.3-4.8,4.4-7.5,6.3c-2.6,1.8-5.4,3.3-8.3,4.6c-2.9,1.2-6,2.1-9.1,2.8c-3.2,0.7-6.4,1-9.7,1  c-3.4,0-6.8-0.3-10-1c-3.1-0.6-6.2-1.6-9.2-2.8c-2.9-1.2-5.7-2.7-8.3-4.6c-2.6-1.8-5.1-4-7.3-6.5c-2.2-2.2-4.2-4.7-5.8-7.3  c-1.6-2.6-3-5.4-4.2-8.3c-1.1-2.9-2-6-2.6-9.1c-0.6-3.2-0.9-6.5-0.9-10.1c0-3.2,0.3-6.3,1-9.4c0.6-3,1.6-6,2.8-8.9  c1.2-2.9,2.7-5.6,4.5-8.2C431.2,18.6,433.3,16.2,435.5,13.9L435.5,13.9z M469.5,74.3c3.4,0,6.6-0.7,9.6-2s5.5-3.1,7.7-5.4  c2.2-2.3,3.9-5,5.1-8.2c1.3-3.2,1.9-6.7,1.9-10.5c0-3.4-0.6-6.7-1.9-9.7c-1.3-3-3-5.6-5.1-7.8c-2.2-2.2-4.7-3.9-7.7-5.2  c-3-1.3-6.1-2-9.4-2c-3.4,0-6.7,0.7-9.7,2s-5.7,3.1-7.9,5.2c-2.2,2.2-4,4.8-5.2,7.8c-1.3,3-1.9,6.3-1.9,9.7c0,3.7,0.7,7.1,2,10.3  c1.3,3.2,3.1,5.9,5.4,8.2c2.3,2.3,5,4.2,7.9,5.5C463.3,73.6,466.4,74.3,469.5,74.3L469.5,74.3z M522.2,95.7V2.1h20.6l34.4,52v-52h23  v93.6H580l-34.8-52.2v52.2H522.2z"/>
</svg>
