<?xml version="1.0"?>
<svg xmlns="http://www.w3.org/2000/svg" width="320" height="160" viewBox="0 0 320 160" fill="none">
<path d="M220.472 75.6737V58.7515C220.472 54.8754 222.464 52.6203 225.659 52.6203C228.75 52.6203 230.114 54.666 230.114 57.7526V75.6737H236.3V57.7047C236.3 52.3092 233.47 48.9535 228.021 48.9535C224.145 48.9535 221.998 50.6285 220.789 52.7758H220.472V49.474H214.287V75.6678H220.472V75.6737ZM197.838 73.317C193.806 73.317 191.55 69.4947 191.55 62.5739C191.55 55.5513 193.806 51.8308 197.838 51.8308C201.869 51.8308 204.124 55.6052 204.124 62.5739C204.124 69.5964 201.869 73.317 197.838 73.317ZM197.838 76.2001C206.063 76.2001 210.62 70.0689 210.62 62.5798C210.62 55.0907 206.063 48.9595 197.838 48.9595C189.613 48.9595 185.055 55.0907 185.055 62.5798C185.055 70.0689 189.613 76.2001 197.838 76.2001ZM171.589 76.2001C178.661 76.2001 182.488 72.8983 182.488 67.6583C182.488 62.7353 179.085 60.6896 175.52 59.7984L170.49 58.5422C167.977 57.9141 166.876 56.7597 166.876 55.0848C166.876 52.9912 168.659 51.7291 171.326 51.7291C174.473 51.7291 176.411 53.4578 176.669 56.7597L181.908 55.1865C181.28 51.5197 177.667 48.9535 171.847 48.9535C166.135 48.9535 161.839 51.3641 161.839 56.4965C161.839 60.8451 164.825 63.2019 168.181 64.0394L173.42 65.3493C176.196 66.0313 177.452 67.0243 177.452 69.2255C177.452 71.8993 175.568 73.4186 172.266 73.4186C168.7 73.4186 166.871 71.6899 166.296 67.3413L160.745 68.9145C161.056 73.4186 165.249 76.2001 171.589 76.2001ZM141.986 75.6737V58.7515C141.986 54.8754 143.978 52.6203 147.173 52.6203C150.265 52.6203 151.629 54.666 151.629 57.7526V75.6737H157.814V57.7047C157.814 52.3092 154.985 48.9535 149.535 48.9535C145.659 48.9535 143.512 50.6285 142.303 52.7758H141.986V49.474H135.801V75.6678H141.986V75.6737ZM115.009 75.6737V58.7515C115.009 54.8754 117.001 52.6203 120.195 52.6203C123.288 52.6203 124.646 54.666 124.646 57.7526V75.6737H130.831V57.7047C130.831 52.3092 128.001 48.9535 122.552 48.9535C118.676 48.9535 116.528 50.6285 115.32 52.7758H115.003V39H108.818V75.6737H115.009ZM92.3744 73.317C88.3367 73.317 86.0875 69.4947 86.0875 62.5739C86.0875 55.5513 88.3426 51.8308 92.3744 51.8308C96.406 51.8308 98.6611 55.6052 98.6611 62.5739C98.667 69.5964 96.4119 73.317 92.3744 73.317ZM92.3744 76.2001C100.599 76.2001 105.157 70.0689 105.157 62.5798C105.157 55.0907 100.599 48.9595 92.3744 48.9595C84.1495 48.9595 79.5915 55.0907 79.5915 62.5798C79.5915 70.0689 84.1495 76.2001 92.3744 76.2001ZM63.7699 76.5112C72.5211 76.5112 75.9247 71.2712 75.9247 64.4103V39H69.4285V66.0851C69.4285 70.4876 67.7537 73.1077 63.7699 73.1077C59.8399 73.1077 58.1112 70.3321 58.1112 65.5647V60.5341L51.6151 62.1552V64.4103C51.6151 71.2712 55.0246 76.5112 63.7699 76.5112ZM255.155 120.471V103.548C255.155 99.6724 257.146 97.4173 260.34 97.4173C263.433 97.4173 264.797 99.463 264.797 102.55V120.471H270.982V102.502C270.982 97.1062 268.152 93.7505 262.703 93.7505C258.826 93.7505 256.68 95.4253 255.472 97.5728H255.16V94.2708H248.975V120.465H255.155V120.471ZM232.525 118.114C228.494 118.114 226.239 114.292 226.239 107.371C226.239 100.348 228.494 96.6276 232.525 96.6276C236.557 96.6276 238.813 100.402 238.813 107.371C238.813 114.393 236.557 118.114 232.525 118.114ZM232.525 120.997C240.75 120.997 245.309 114.866 245.309 107.377C245.309 99.8817 240.75 93.7564 232.525 93.7564C224.3 93.7564 219.743 99.8877 219.743 107.377C219.743 114.866 224.3 120.997 232.525 120.997ZM206.278 120.997C213.348 120.997 217.176 117.695 217.176 112.455C217.176 107.532 213.772 105.487 210.208 104.595L205.177 103.339C202.665 102.711 201.565 101.557 201.565 99.8817C201.565 97.7881 203.347 96.5259 206.02 96.5259C209.167 96.5259 211.105 98.2546 211.363 101.557L216.602 99.9833C215.974 96.3166 212.361 93.7505 206.541 93.7505C200.829 93.7505 196.533 96.1611 196.533 101.293C196.533 105.642 199.519 107.999 202.875 108.836L208.114 110.146C210.89 110.828 212.145 111.821 212.145 114.022C212.145 116.696 210.262 118.216 206.96 118.216C203.394 118.216 201.565 116.487 200.99 112.138L195.439 113.711C195.744 118.216 199.938 120.997 206.278 120.997ZM176.674 120.471V103.548C176.674 99.6724 178.666 97.4173 181.86 97.4173C184.953 97.4173 186.311 99.463 186.311 102.55V120.471H192.496V102.502C192.496 97.1062 189.667 93.7505 184.217 93.7505C180.342 93.7505 178.194 95.4253 176.986 97.5728H176.669V94.2708H170.483V120.465H176.674V120.471ZM149.697 120.471V103.548C149.697 99.6724 151.689 97.4173 154.883 97.4173C157.976 97.4173 159.333 99.463 159.333 102.55V120.471H165.518V102.502C165.518 97.1062 162.689 93.7505 157.24 93.7505C153.364 93.7505 151.216 95.4253 150.008 97.5728H149.691V83.7969H143.506V120.471H149.697ZM127.062 118.114C123.031 118.114 120.775 114.292 120.775 107.371C120.775 100.348 123.031 96.6276 127.062 96.6276C131.094 96.6276 133.349 100.402 133.349 107.371C133.349 114.393 131.1 118.114 127.062 118.114ZM127.062 120.997C135.287 120.997 139.845 114.866 139.845 107.377C139.845 99.8817 135.287 93.7564 127.062 93.7564C118.837 93.7564 114.279 99.8877 114.279 107.377C114.279 114.866 118.837 120.997 127.062 120.997ZM98.4578 121.308C107.209 121.308 110.613 116.068 110.613 109.207V83.7969H104.116V110.882C104.116 115.285 102.441 117.905 98.4578 117.905C94.5277 117.905 92.799 115.129 92.799 110.362V105.331L86.303 106.958V109.213C86.303 116.068 89.7065 121.308 98.4578 121.308ZM63.8835 117.486C58.8529 117.486 55.7604 113.4 55.7604 109.052C55.7604 106.33 56.9627 103.812 58.9546 102.4L70.7984 115.338C68.5971 116.648 66.1326 117.486 63.8835 117.486ZM70.2181 98.7272C74.4591 98.7272 77.0792 101.192 77.0792 105.433C77.0792 107.317 76.5528 109.255 75.4042 111.038L65.1397 99.7202C66.9701 98.9904 68.7526 98.7272 70.2181 98.7272ZM63.8835 85.735C66.976 85.735 68.8065 87.5175 68.8065 90.7656C68.8065 93.7505 67.3409 96.5798 63.7221 98.2068L61.4669 95.6945C59.475 93.4932 58.9008 92.1294 58.9008 90.5084C58.9008 87.4637 60.8448 85.735 63.8835 85.735ZM77.0312 112.82C79.8606 109.464 81.4817 105.798 81.4817 102.603C81.4817 98.6196 78.8079 95.9517 74.6207 95.9517C72.4193 95.9517 69.9549 96.5798 68.3338 97.2079L68.2262 96.9985C72.2101 94.8511 73.8849 92.8591 73.8849 90.0837C73.8849 86.0998 70.3198 82.9594 64.033 82.9594C56.8012 82.9594 53.2421 86.9912 53.2421 92.0218C53.2421 94.7434 54.3965 97.471 57.4352 100.773L57.4891 100.881C52.3568 103.345 50 107.323 50 111.414C50 116.81 54.1393 121.314 60.5278 121.314C64.1946 121.314 68.4894 119.795 72.3715 117.073L75.5179 120.477H83.7427V120.213L77.0312 112.82Z" fill="#EB1700"/>
</svg>
