<svg viewBox="0 0 24 24" xmlns="http://www.w3.org/2000/svg">
<path d="M5.80469 21.7729C5.25469 21.7729 4.78385 21.5771 4.39219 21.1854C4.00052 20.7937 3.80469 20.3229 3.80469 19.7729V9.77289C3.80469 9.22289 4.00052 8.75206 4.39219 8.36039C4.78385 7.96872 5.25469 7.77289 5.80469 7.77289H6.80469V5.77289C6.80469 4.38955 7.29219 3.21039 8.26719 2.23539C9.24219 1.26039 10.4214 0.772888 11.8047 0.772888C13.188 0.772888 14.3672 1.26039 15.3422 2.23539C16.3172 3.21039 16.8047 4.38955 16.8047 5.77289V7.77289H17.8047C18.3547 7.77289 18.8255 7.96872 19.2172 8.36039C19.6089 8.75206 19.8047 9.22289 19.8047 9.77289V19.7729C19.8047 20.3229 19.6089 20.7937 19.2172 21.1854C18.8255 21.5771 18.3547 21.7729 17.8047 21.7729H5.80469ZM5.80469 19.7729H17.8047V9.77289H5.80469V19.7729ZM11.8047 16.7729C12.3547 16.7729 12.8255 16.5771 13.2172 16.1854C13.6089 15.7937 13.8047 15.3229 13.8047 14.7729C13.8047 14.2229 13.6089 13.7521 13.2172 13.3604C12.8255 12.9687 12.3547 12.7729 11.8047 12.7729C11.2547 12.7729 10.7839 12.9687 10.3922 13.3604C10.0005 13.7521 9.80469 14.2229 9.80469 14.7729C9.80469 15.3229 10.0005 15.7937 10.3922 16.1854C10.7839 16.5771 11.2547 16.7729 11.8047 16.7729ZM8.80469 7.77289H14.8047V5.77289C14.8047 4.93955 14.513 4.23122 13.9297 3.64789C13.3464 3.06455 12.638 2.77289 11.8047 2.77289C10.9714 2.77289 10.263 3.06455 9.67969 3.64789C9.09635 4.23122 8.80469 4.93955 8.80469 5.77289V7.77289Z" />
</svg>
