<?xml version="1.0"?>
<svg xmlns="http://www.w3.org/2000/svg" width="113" height="56" viewBox="0 0 113 56" fill="none">
<path d="M70.1661 30.9817C68.4597 30.9817 67.0711 29.5927 67.0711 27.8867C67.0711 26.1803 68.4597 24.7917 70.1661 24.7917C71.8725 24.7917 73.2607 26.1803 73.2607 27.8867C73.2607 29.6098 71.8554 30.9817 70.1661 30.9817ZM70.1661 22.9512C67.4392 22.9512 65.2309 25.1599 65.2309 27.8867C65.2309 30.6135 67.4392 32.8218 70.1661 32.8218C72.8929 32.8218 75.1012 30.6135 75.1012 27.8867C75.1012 25.1765 72.8929 22.9512 70.1661 22.9512ZM64.1268 31.2325H64.5283V33.0893H64.1268C62.0022 33.0893 60.2621 31.3495 60.2621 29.2249V20.7429H62.1193V23.219H64.5113V25.0761H62.1193V29.2416C62.1193 30.3291 63.0227 31.2325 64.1268 31.2325ZM86.7446 30.9817C85.0381 30.9817 83.6499 29.5927 83.6499 27.8867C83.6499 26.1803 85.0381 24.7917 86.7446 24.7917C88.451 24.7917 89.8396 26.1803 89.8396 27.8867C89.8229 29.6098 88.4343 30.9817 86.7446 30.9817ZM86.7446 22.9512C84.0177 22.9512 81.8094 25.1599 81.8094 27.8867C81.8094 30.6135 84.0177 32.8218 86.7446 32.8218C89.4714 32.8218 91.6797 30.6135 91.6797 27.8867C91.6797 25.1765 89.4714 22.9512 86.7446 22.9512ZM100.948 30.9817C99.2413 30.9817 97.8531 29.5927 97.8531 27.8867C97.8531 26.1803 99.2413 24.7917 100.948 24.7917C102.654 24.7917 104.043 26.1803 104.043 27.8867C104.043 29.6098 102.637 30.9813 100.948 30.9813M100.948 22.9512C98.2208 22.9512 96.0126 25.1599 96.0126 27.8867C96.0126 30.6135 98.2208 32.8218 100.948 32.8218C102.152 32.8218 103.256 32.3866 104.11 31.6673V32.6377H105.883V28.0371V27.8863C105.883 25.1762 103.675 22.9512 100.948 22.9512ZM80.2034 22.9516H81.0901V24.8084H80.2034C79.0996 24.8084 78.1959 25.7121 78.1959 26.8159V32.7048H76.3391V26.8159C76.3391 24.6913 78.0788 22.9516 80.2034 22.9516ZM92.9179 20.4921H94.7747V32.6711H92.9179V20.4921ZM47.9161 27.0666V32.9389H46.059V27.0666C46.059 25.9625 45.1556 25.0591 44.0514 25.0591C42.9477 25.0591 42.0439 25.9625 42.0439 27.0666V32.9385H40.1871V27.0666C40.1871 25.9625 39.2833 25.0591 38.1796 25.0591C37.0758 25.0591 36.172 25.9625 36.172 27.0666V32.9385H34.3153V27.0666C34.3153 24.9417 36.055 23.202 38.1629 23.202C39.3508 23.202 40.3879 23.7205 41.1072 24.5572C41.8265 23.7205 42.8636 23.202 44.0518 23.202C46.176 23.202 47.9161 24.9417 47.9161 27.0666ZM54.1058 31.2325C52.3994 31.2325 51.0108 29.8439 51.0108 28.1375C51.0108 26.431 52.3997 25.0424 54.1058 25.0424C55.8122 25.0424 57.2008 26.4314 57.2008 28.1375C57.2008 29.8439 55.7955 31.2325 54.1058 31.2325ZM54.1058 23.2023C51.3623 23.2023 49.1536 25.4106 49.1536 28.1375C49.1536 30.8643 51.3623 33.0726 54.0891 33.0726C56.816 33.0726 59.0243 30.8643 59.0243 28.1375C59.0409 25.4273 56.8326 23.2023 54.1058 23.2023ZM19.108 16.929C12.9017 16.929 7.88281 21.9478 7.88281 28.1541C7.88281 34.3604 12.9017 39.3797 19.108 39.3797C25.3147 39.3797 30.3335 34.3608 30.3335 28.1541C30.3335 21.9811 25.3813 16.929 19.108 16.929Z" fill="#687580"/>
<path d="M22.4534 19.6893L19.1243 30.7308L19.1073 30.7474L19.074 30.7308L15.7448 19.6893L11.4453 33.8258H12.2483C12.2483 33.8258 12.7839 31.3664 13.6706 29.8944C14.1559 29.0914 14.8918 28.4388 15.8786 28.4555C16.5812 28.4725 17.1835 28.857 17.9365 29.9111C18.1035 30.1452 18.3043 30.53 18.505 30.8982C18.8232 31.5168 19.0906 32.1527 19.0906 32.1527C19.0906 32.1527 19.7933 30.5467 20.2451 29.9111C20.9978 28.857 21.6 28.4725 22.3027 28.4555C23.2898 28.4388 24.0424 29.0914 24.511 29.8944C25.3977 31.3664 25.9333 33.8258 25.9333 33.8258H26.7359L22.4534 19.6893Z" fill="white"/>
</svg>
