<?xml version="1.0" encoding="utf-8"?>
<svg xmlns="http://www.w3.org/2000/svg" xmlns:xlink="http://www.w3.org/1999/xlink" id="Capa_1" x="0px" y="0px" viewBox="0 0 2279.4 336.4" style="enable-background:new 0 0 2279.4 336.4;" xml:space="preserve">
<style type="text/css">
	.st0{fill:#2866AD;}
</style>
<path class="st0" d="M545.8,96.4h84.3l3.7,27.8c6.5-22.2,49.1-38,75.1-38c60.2,0,84.3,37.1,84.3,101.9V328h-93.6V202.9  c0-25-4.6-43.5-29.6-43.5c-23.2,0-35.2,25-35.2,42.6v126h-88.9L545.8,96.4L545.8,96.4z M0,328.9V0.9h156.6  c93.6,0,136.2,45.4,136.2,111.2c0,70.4-38.9,118.6-136.2,118.6h-52.8V329L0,328.9L0,328.9L0,328.9z M145.5,151  c25,0,51.9-5.6,51.9-34.3c0-29.6-28.7-36.1-51.9-36.1h-41.7V151H145.5z M1576.1,96.4h85.2l2.8,27.8c7.4-22.2,50-38,76-38  c59.3,0,84.3,37.1,84.3,101.9v140.8h-93.6v-126c0-25-5.6-43.5-30.6-43.5c-22.2,0-34.3,25-34.3,42.6v126.9h-89.9L1576.1,96.4  L1576.1,96.4L1576.1,96.4z M1146.2,245.6c0,9.3,4.6,23.2,10.2,27.8c6.5,4.6,14.8,9.3,25,9.3c16.7,0,29.6-4.6,29.6-20.4  c0.9-38.9-140.8-4.6-140.8-97.3c0-64.8,50.1-79.7,101.9-79.7c51.9,0,123.2,10.2,120.5,80.6h-78.8c0-6.5-2.8-11.1-6.5-16.7  c-5.6-6.5-12.1-9.3-24.1-10.2c-15.8-0.9-30.6,1.9-30.6,13.9c0.9,36.1,146.4,12,146.4,97.3c0,59.3-41.7,86.2-122.3,86.2  c-51-0.9-114.9-26.9-114.9-90.8L1146.2,245.6L1146.2,245.6L1146.2,245.6z M2105.2,186.2c0-5.6,0-13-7.4-22.2  c-3.7-4.6-12.1-14.8-25-14.8c-35.2,0-44.5,34.3-44.5,62.1c0,32.4,14.9,59.3,42.6,59.3c24.1,0,36.1-22.2,36.1-40.8h81.5  c1.9,48.2-31.5,105.6-121.4,105.6c-73.2,0-125.1-51-125.1-125.1c0-89.9,66.7-124.2,124.1-124.2c77.8,0,122.3,47.3,121.4,100.1  L2105.2,186.2L2105.2,186.2L2105.2,186.2z M446.6,328.9l-9.3-19.5c-17.6,14.8-36.1,23.2-65.8,23.2c-28.7-0.9-85.3-4.6-85.3-66.7  c0-101.9,152-55.6,152-105.6c0-16.7-18.5-15.8-28.7-15.8c-18.5,0-30.6,3.7-33.4,31.5h-77.8c0-48.2,14.8-88.9,116.8-88.9  c99.2,0,109.3,51.9,109.3,102.9v105.6c0,13.9,0.9,20.4,10.2,30.6v1.9L446.6,328.9z M439.2,222.4c-31.5,14.9-71.3,13.9-72.3,37.1  c0,14.8,8.3,22.2,26.9,22.2C424.4,281.7,441.1,250.2,439.2,222.4z M969.2,328.9l-9.3-19.5c-17.6,14.8-37.1,23.2-65.8,23.2  c-29.6-0.9-86.2-4.6-86.2-66.7c0-101.9,152-55.6,152.9-105.6c0-16.7-19.5-15.8-28.7-15.8c-19.5,0-30.6,3.7-33.4,31.5H821  c0-48.2,13.9-88.9,116.7-88.9c98.2,0,108.4,51.9,108.4,102.9v105.6c0,13.9,0.9,20.4,10.2,30.6v1.9L969.2,328.9L969.2,328.9z   M961.8,222.4c-31.5,14.9-72.3,13.9-72.3,37.1c0,14.8,7.4,22.2,26.9,22.2C946.1,281.7,963.7,250.2,961.8,222.4z M1927.3,328.9V96.4  h-86.2v232.6H1927.3z M1841.1,66.7h86.2V0h-86.2V66.7z M1437.1,88c76.9,0,124.2,53.7,124.2,124.2c0,71.4-47.3,124.2-124.2,124.2  c-76.9,0-125.1-52.8-125.1-124.2C1312,141.8,1360.2,88,1437.1,88L1437.1,88z M1396.4,212.2c0,28.7,9.3,63.9,40.8,64.9  c31.5,0,39.8-36.1,39.8-64.9c0-27.8-8.3-63.9-39.8-63.9C1405.7,148.3,1397.3,184.4,1396.4,212.2z M2243.3,283.5  c5.6,0,13.9,0.9,13.9-6.5c0-6.5-5.6-7.4-10.2-7.4h-11.1v13.9H2243.3L2243.3,283.5z M2261.8,305.8h-5.6l-11.1-18.5h-9.3v18.5h-4.6  v-39.8h16.7c7.4,0,14.1,2.2,14.1,11.1c0,7.4-4.8,10.2-12.2,10.2L2261.8,305.8L2261.8,305.8z M2275.3,286.8  c0-17.6-13.9-31.5-30.6-31.5c-17.3-0.1-31.4,13.7-31.5,31c0,0.2,0,0.3,0,0.5c0,16.7,13.9,30.6,31.5,30.6  C2261.5,317.2,2275.1,303.6,2275.3,286.8z M2209,286.3c0-19.4,15.8-35.2,35.2-35.2s35.2,15.8,35.2,35.2c0,19.5-15.8,35.2-35.2,35.2  S2209,305.8,2209,286.3z"/>
</svg>
