<?xml version="1.0"?>
<svg xmlns="http://www.w3.org/2000/svg" width="200" height="80" viewBox="0 0 200 80" fill="none">
<path d="M42.3506 58.5052L43.0234 57.6979C43.4943 58.0679 43.9652 58.337 44.5707 58.337C45.0417 58.337 45.3108 58.1352 45.3108 57.8324C45.3108 57.5297 45.1426 57.3951 44.268 57.1596C43.2252 56.8905 42.5524 56.5878 42.5524 55.5786C42.5524 54.6367 43.2925 54.0312 44.3689 54.0312C45.1089 54.0312 45.7817 54.2667 46.2863 54.704L45.6808 55.5786C45.2099 55.2759 44.7726 55.074 44.3353 55.074C43.898 55.074 43.6625 55.2759 43.6625 55.5113C43.6625 55.8477 43.898 55.9486 44.7726 56.1841C45.8154 56.4532 46.4209 56.8233 46.4209 57.7315C46.4209 58.7743 45.6472 59.3461 44.5035 59.3461C43.7634 59.3125 42.9561 59.0434 42.3506 58.5052Z" fill="#00527D"/>
<path d="M51.0287 54.0312H52.0715L54.2917 59.2452H53.1143L52.6434 58.0679H50.4569L49.9859 59.2452H48.8086L51.0287 54.0312ZM52.2397 57.0924L51.567 55.4104L50.8942 57.0924H52.2397Z" fill="#00527D"/>
<path d="M57.5883 55.1076H56.0073V54.0648H60.3131V55.1076H58.732V59.2451H57.5883V55.1076Z" fill="#00527D"/>
<path d="M63.105 54.0648H67.0071V55.0739H64.215V56.1167H66.6707V57.1259H64.215V58.2023H67.0407V59.2115H63.105V54.0648Z" fill="#00527D"/>
<path d="M69.9673 54.0648H71.111V58.2023H73.7012V59.2451H69.9673V54.0648Z" fill="#00527D"/>
<path d="M76.4937 54.0648H77.6374V58.2023H80.2275V59.2451H76.4937V54.0648Z" fill="#00527D"/>
<path d="M83.0532 54.0648H84.1969V59.2451H83.0532V54.0648Z" fill="#00527D"/>
<path d="M88.604 55.1076H87.0229V54.0648H91.3287V55.1076H89.7477V59.2451H88.604V55.1076Z" fill="#00527D"/>
<path d="M94.1204 54.0648H98.0224V55.0739H95.2304V56.1167H97.6861V57.1259H95.2304V58.2023H98.0561V59.2115H94.1204V54.0648Z" fill="#00527D"/>
<path d="M105.154 54.0648H107.508C108.181 54.0648 108.686 54.2666 109.022 54.603C109.325 54.9058 109.459 55.3094 109.459 55.7804C109.459 56.6213 109.022 57.1595 108.349 57.395L109.627 59.2451H108.282L107.172 57.5968H106.297V59.2451H105.154V54.0648ZM107.475 56.5877C108.046 56.5877 108.349 56.2849 108.349 55.8476C108.349 55.3431 108.013 55.1076 107.441 55.1076H106.297V56.5877H107.475Z" fill="#00527D"/>
<path d="M114.236 54.0312H115.279L117.499 59.2452H116.322L115.851 58.0679H113.664L113.193 59.2452H112.016L114.236 54.0312ZM115.414 57.0924L114.741 55.4104L114.068 57.0924H115.414Z" fill="#00527D"/>
<path d="M120.224 54.0648H122.242C123.857 54.0648 125.001 55.1749 125.001 56.655C125.001 58.1014 123.89 59.2451 122.242 59.2451H120.224V54.0648ZM122.242 58.236C123.184 58.236 123.79 57.5968 123.79 56.6886C123.79 55.7804 123.15 55.1412 122.242 55.1412H121.368V58.2696H122.242V58.236Z" fill="#00527D"/>
<path d="M127.994 54.0648H129.138V59.2451H127.994V54.0648Z" fill="#00527D"/>
<path d="M132.132 56.6886C132.132 55.2085 133.309 53.9975 134.89 53.9975C136.505 53.9975 137.649 55.1748 137.649 56.6549C137.649 58.135 136.471 59.346 134.89 59.346C133.276 59.346 132.132 58.135 132.132 56.6886ZM136.438 56.6886C136.438 55.7803 135.799 55.0403 134.857 55.0403C133.949 55.0403 133.309 55.7803 133.309 56.6549C133.309 57.5295 133.949 58.2696 134.89 58.2696C135.832 58.2696 136.438 57.5632 136.438 56.6886Z" fill="#00527D"/>
<path d="M172.229 23.2865C175.156 27.5586 176.703 32.5708 176.703 37.7511C176.703 42.9651 175.156 47.9772 172.196 52.2493C171.691 52.9894 171.859 54.0322 172.633 54.5367C173.373 55.0413 174.416 54.8731 174.92 54.0994C178.251 49.2555 180 43.6042 180 37.7175C180 31.8644 178.251 26.2131 174.954 21.3691C174.449 20.6291 173.407 20.4272 172.667 20.9318C171.927 21.5373 171.725 22.5465 172.229 23.2865Z" fill="#009BDB"/>
<path d="M167.016 50.0631C167.756 50.6013 168.765 50.4667 169.303 49.7267C171.893 46.2619 173.272 42.158 173.272 37.8186C173.272 33.4456 171.893 29.3081 169.236 25.8097C168.698 25.0696 167.655 24.9351 166.948 25.5069C166.208 26.0451 166.074 27.0879 166.646 27.7943C168.832 30.6872 170.01 34.152 170.01 37.785C170.01 41.4179 168.866 44.8491 166.713 47.7084C166.175 48.482 166.309 49.5248 167.016 50.0631Z" fill="#009BDB"/>
<path d="M161.196 46.0607C161.903 46.6326 162.945 46.5317 163.517 45.7916C165.334 43.5042 166.343 40.6449 166.343 37.7184C166.343 34.8254 165.401 32.0671 163.618 29.7797C163.046 29.0732 162.037 28.9387 161.297 29.5106C160.591 30.0824 160.456 31.0916 161.028 31.8316C162.373 33.5135 163.046 35.5655 163.046 37.7184C163.046 39.9385 162.306 41.9905 160.927 43.706C160.355 44.4461 160.49 45.4889 161.196 46.0607Z" fill="#009BDB"/>
<path d="M7.77051 52.2812C4.84395 48.0091 3.29658 42.997 3.29658 37.783C3.29658 32.569 4.84395 27.5905 7.77051 23.3184C8.27509 22.5784 8.10689 21.5356 7.33321 21.031C6.59316 20.5264 5.55036 20.6946 5.04578 21.4683C1.74921 26.2786 0 31.9299 0 37.783C0 43.6698 1.74921 49.321 5.07942 54.165C5.584 54.905 6.6268 55.1069 7.36685 54.6023C8.10689 54.0641 8.30873 53.0549 7.77051 52.2812Z" fill="#009BDB"/>
<path d="M13.3546 27.8256C13.8928 27.1192 13.7582 26.0764 13.0518 25.5382C12.3454 25 11.3026 25.1346 10.7644 25.841C8.1406 29.3057 6.72778 33.4433 6.72778 37.8499C6.72778 42.1893 8.10696 46.2932 10.6971 49.758C11.2354 50.498 12.2781 50.6326 12.9846 50.0944C13.7246 49.5562 13.8592 48.5134 13.3209 47.807C11.1681 44.914 10.0244 41.4829 10.0244 37.8836C9.99072 34.1833 11.1344 30.7186 13.3546 27.8256Z" fill="#009BDB"/>
<path d="M13.6572 37.7497C13.6572 40.6763 14.6664 43.5356 16.4829 45.823C17.0547 46.5294 18.0975 46.6303 18.8039 46.0921C19.5103 45.5202 19.6113 44.4774 19.0394 43.771C17.6602 42.0555 16.9202 39.9699 16.9202 37.7834C16.9202 35.6305 17.6266 33.5785 18.9385 31.8966C19.5103 31.1902 19.3758 30.1474 18.6694 29.5756C17.963 29.0037 16.9202 29.1383 16.3483 29.8447C14.5991 32.0984 13.6572 34.8232 13.6572 37.7497Z" fill="#009BDB"/>
<path d="M29.5348 41.3854C29.5348 42.1591 29.8376 42.731 30.3422 43.1346C30.8131 43.5047 31.4522 43.7065 32.1923 43.7065C33.336 43.7065 34.5806 43.3365 34.5806 41.9909C34.5806 38.9635 22.9417 41.3854 22.9417 34.0186C22.9417 29.1746 27.9875 27.7618 31.9232 27.7618C36.0607 27.7618 40.9047 28.7037 41.342 33.7495H34.4797C34.4124 33.144 34.1433 32.7067 33.7397 32.3703C33.336 32.0339 32.7978 31.8994 32.2259 31.8994C30.914 31.8994 30.0731 32.303 30.0731 33.2449C30.0731 35.9023 42.082 34.1195 42.082 41.2172C42.082 45.1529 38.8191 47.844 31.8559 47.844C27.5165 47.844 22.7398 46.4985 22.3362 41.3854H29.5348Z" fill="#00527D"/>
<path d="M43.3604 27.7956H49.4826V30.7221H43.3604V27.7956ZM43.3604 47.4068V31.9667H49.4826V47.4068H43.3604Z" fill="#00527D"/>
<path d="M51.0972 31.9664H56.6475V35.0947H56.7148C57.5558 32.6728 59.0695 31.5291 61.4578 31.5291C61.727 31.5291 61.9961 31.5963 62.2652 31.63V37.7522C61.8615 37.6849 61.4242 37.584 60.9869 37.584C58.4977 37.584 57.2194 38.7613 57.2194 42.0916V47.4065H51.0972V31.9664Z" fill="#00527D"/>
<path d="M63.5769 27.7956H69.6991V30.7221H63.5769V27.7956ZM63.5769 47.4068V31.9667H69.6991V47.4068H63.5769Z" fill="#00527D"/>
<path d="M87.9651 47.4066H82.2802V45.1528C80.7665 47.2721 79.2528 47.8776 76.7299 47.8776C73.366 47.8776 71.2131 45.8256 71.2131 41.419V31.9665H77.3354V40.3089C77.3354 42.4281 78.0754 43.1009 79.5555 43.1009C81.3047 43.1009 81.8766 41.789 81.8766 39.4006V31.9665H87.9988V47.4066H87.9651Z" fill="#00527D"/>
<path d="M94.4574 42.5966C94.4574 43.2021 94.6929 43.673 95.0965 44.0094C95.4666 44.3122 96.0048 44.4803 96.6103 44.4803C97.5522 44.4803 98.5613 44.1776 98.5613 43.1012C98.5613 40.6456 89.1089 42.5966 89.1089 36.6426C89.1089 32.7069 93.2128 31.5631 96.4084 31.5631C99.7723 31.5631 103.708 32.3368 104.078 36.4071H98.5277C98.4604 35.9025 98.2586 35.5661 97.9222 35.297C97.5858 35.0279 97.1485 34.927 96.6776 34.927C95.6011 34.927 94.9284 35.2634 94.9284 36.0034C94.9284 38.1563 104.684 36.7098 104.684 42.4957C104.684 45.6913 102.026 47.8778 96.3748 47.8778C92.8428 47.8778 88.9407 46.8014 88.6379 42.6302H94.4574V42.5966Z" fill="#00527D"/>
<path d="M110.603 37.3495L104.347 28.3008H112.723L115.111 33.0438L117.634 28.3008H125.909L119.417 37.3159L125.976 47.3065H117.567L114.875 41.8571L112.151 47.3065H103.808L110.603 37.3495Z" fill="#00527D"/>
<path d="M126.448 28.3H133.377V31.1257C134.319 29.6792 136.035 27.7618 138.759 27.7618C141.888 27.7618 143.805 29.2083 144.713 31.2266C146.328 28.9392 147.774 27.7618 150.533 27.7618C155.309 27.7618 157.664 30.8902 157.664 36.0705V47.3058H150.129V37.6179C150.129 34.8259 149.961 33.7158 147.943 33.7158C145.823 33.7158 145.857 35.6332 145.857 37.9207V47.3058H138.322V37.6179C138.322 34.8259 138.154 33.7495 136.135 33.7158C134.05 33.6486 134.016 35.6332 134.016 37.9207V47.3058H126.481V28.3H126.448Z" fill="#00527D"/>
<path d="M155.545 26.5833H154.872V26.2469H156.554V26.5833H155.881V28.3325H155.511V26.5833H155.545Z" fill="#00527D"/>
<path d="M156.958 26.2469H157.361L158 27.2225L158.639 26.2469H159.043V28.3325H158.673V26.8524L158.034 27.828L157.395 26.8524V28.3325H157.025V26.2469H156.958Z" fill="#00527D"/>
</svg>
