<svg viewBox="0 0 24 24" xmlns="http://www.w3.org/2000/svg">
<path d="M8.37835 21.75L6.92834 19.3L4.17834 18.7C3.92834 18.65 3.72834 18.5208 3.57834 18.3125C3.42834 18.1042 3.37001 17.875 3.40334 17.625L3.67834 14.8L1.80334 12.65C1.63668 12.4667 1.55334 12.25 1.55334 12C1.55334 11.75 1.63668 11.5333 1.80334 11.35L3.67834 9.2L3.40334 6.375C3.37001 6.125 3.42834 5.89583 3.57834 5.6875C3.72834 5.47916 3.92834 5.35 4.17834 5.3L6.92834 4.7L8.37835 2.25C8.51168 2.03333 8.69501 1.8875 8.92834 1.8125C9.16168 1.7375 9.39501 1.75 9.62834 1.85L12.2283 2.95L14.8283 1.85C15.0617 1.75 15.295 1.7375 15.5283 1.8125C15.7617 1.8875 15.945 2.03333 16.0783 2.25L17.5283 4.7L20.2783 5.3C20.5283 5.35 20.7283 5.47916 20.8783 5.6875C21.0283 5.89583 21.0867 6.125 21.0533 6.375L20.7783 9.2L22.6533 11.35C22.82 11.5333 22.9033 11.75 22.9033 12C22.9033 12.25 22.82 12.4667 22.6533 12.65L20.7783 14.8L21.0533 17.625C21.0867 17.875 21.0283 18.1042 20.8783 18.3125C20.7283 18.5208 20.5283 18.65 20.2783 18.7L17.5283 19.3L16.0783 21.75C15.945 21.9667 15.7617 22.1125 15.5283 22.1875C15.295 22.2625 15.0617 22.25 14.8283 22.15L12.2283 21.05L9.62834 22.15C9.39501 22.25 9.16168 22.2625 8.92834 22.1875C8.69501 22.1125 8.51168 21.9667 8.37835 21.75ZM9.67834 19.95L12.2283 18.85L14.8283 19.95L16.2283 17.55L18.9783 16.9L18.7283 14.1L20.5783 12L18.7283 9.85L18.9783 7.05L16.2283 6.45L14.7783 4.05L12.2283 5.15L9.62834 4.05L8.22834 6.45L5.47834 7.05L5.72834 9.85L3.87834 12L5.72834 14.1L5.47834 16.95L8.22834 17.55L9.67834 19.95ZM11.1783 12.7L9.72834 11.275C9.54501 11.0917 9.31585 11 9.04084 11C8.76584 11 8.52834 11.1 8.32834 11.3C8.14501 11.4833 8.05334 11.7167 8.05334 12C8.05334 12.2833 8.14501 12.5167 8.32834 12.7L10.4783 14.85C10.6783 15.05 10.9117 15.15 11.1783 15.15C11.445 15.15 11.6783 15.05 11.8783 14.85L16.1283 10.6C16.3283 10.4 16.4242 10.1667 16.4158 9.9C16.4075 9.63333 16.3117 9.4 16.1283 9.2C15.9283 9 15.6908 8.89583 15.4158 8.8875C15.1408 8.87916 14.9033 8.975 14.7033 9.175L11.1783 12.7Z" />
</svg>
